<?xml version="1.0" encoding="UTF-8" standalone="no"?>
<!--Generator: Apple Native CoreSVG 232.5-->

<svg
   version="1.1"
   width="100"
   height="100"
   id="svg3"
   sodipodi:docname="book.pages.svg"
   inkscape:version="1.3 (0e150ed, 2023-07-21)"
   xmlns:inkscape="http://www.inkscape.org/namespaces/inkscape"
   xmlns:sodipodi="http://sodipodi.sourceforge.net/DTD/sodipodi-0.dtd"
   xmlns="http://www.w3.org/2000/svg"
   xmlns:svg="http://www.w3.org/2000/svg">
  <defs
     id="defs3" />
  <sodipodi:namedview
     id="namedview3"
     pagecolor="#ffffff"
     bordercolor="#000000"
     borderopacity="0.25"
     inkscape:showpageshadow="2"
     inkscape:pageopacity="0.0"
     inkscape:pagecheckerboard="0"
     inkscape:deskcolor="#d1d1d1"
     inkscape:zoom="7.3913204"
     inkscape:cx="22.526422"
     inkscape:cy="50.194009"
     inkscape:window-width="1800"
     inkscape:window-height="1097"
     inkscape:window-x="0"
     inkscape:window-y="44"
     inkscape:window-maximized="0"
     inkscape:current-layer="svg3" />
  <g
     id="g3"
     style="fill:#ffffff;fill-opacity:1"
     transform="translate(16.126099,10.1133)">
    <rect
       height="79.773399"
       opacity="0"
       width="67.747803"
       x="0"
       y="0"
       id="rect1"
       style="fill:#ffffff;fill-opacity:1" />
    <path
       d="m 63.0428,19.0645 v 47.0218 c 0,6.7891 -3.4455,10.259 -10.138,10.259 h -22.405 c 5.5207,-0.7735 11.1197,-1.864 16.8027,-3.4013 6.5427,-1.8431 9.7109,-6.173 9.7109,-13.6001 V 12.645 c 0,-1.189 -0.1053,-2.3059 -0.3095,-3.3435 4.1966,1.1378 6.3389,4.4157 6.3389,9.763 z"
       fill="#ffffff"
       fill-opacity="0.85"
       id="path1"
       style="fill:#ffffff;fill-opacity:1" />
    <path
       d="m 4.36317,65.1742 c 0,5.535 3.46108,8.6487 9.45433,8.3103 10.5958,-0.5016 21.2455,-1.772 32.2899,-4.7339 4.7328,-1.3171 6.5184,-4.0235 6.5184,-9.4067 V 12.645 C 52.6258,6.29554 48.914,3.29935 42.812,4.7075 33.9606,6.65838 23.6602,8.25633 12.8701,8.84666 7.5747,9.16067 4.36317,12.0359 4.36317,17.6521 Z M 10.1762,64.2244 V 17.9448 c 0,-2.2841 1.4505,-3.324 3.6003,-3.4216 10.0435,-0.4705 20.1485,-2.0607 29.002,-4.0105 2.5094,-0.5482 4.0587,0.7458 4.0587,3.2374 v 45.4074 c 0,2.5559 -0.8591,3.7811 -3.1331,4.3682 -9.2356,2.4836 -19.3407,3.693 -29.6535,4.1535 -2.4006,0.0977 -3.8744,-1.1398 -3.8744,-3.4548 z"
       fill="#ffffff"
       fill-opacity="0.85"
       id="path2"
       style="fill:#ffffff;fill-opacity:1" />
    <path
       d="m 17.2353,25.8724 c 8.5385,-0.5016 15.459,-1.6646 22.606,-3.206 1.3682,-0.3152 1.7422,-1.0431 1.7422,-1.8865 0,-0.9798 -0.7612,-1.8453 -2.1206,-1.5701 -6.8229,1.4926 -13.7202,2.6478 -22.2586,3.1583 -1.1985,0.0965 -1.7822,0.8733 -1.7822,1.7965 0,0.9798 0.7613,1.7644 1.8132,1.7078 z m 0,9.7781 c 8.5385,-0.5259 15.459,-1.6812 22.606,-3.2148 1.3682,-0.3229 1.7422,-1.0509 1.7422,-1.902 0,-0.9632 -0.7612,-1.8376 -2.1206,-1.538 -6.8229,1.4849 -13.7202,2.6401 -22.2586,3.1417 -1.1985,0.081 -1.7822,0.8655 -1.7822,1.781 0,1.0197 0.7613,1.781 1.8132,1.7321 z m 0,9.7538 c 8.5385,-0.5015 15.459,-1.6645 22.606,-3.1982 1.3682,-0.3318 1.7422,-1.0508 1.7422,-1.8942 0,-0.9721 -0.7612,-1.8454 -2.1206,-1.5624 -6.8229,1.4849 -13.7202,2.6401 -22.2586,3.1416 -1.1985,0.1132 -1.7822,0.8733 -1.7822,1.8132 0,0.9799 0.7613,1.7644 1.8132,1.7 z m 0,9.7538 c 4.8962,-0.2597 8.2155,-0.7235 11.5338,-1.2362 1.0364,-0.1776 1.5879,-1.0032 1.5879,-1.8132 0,-0.9388 -0.7368,-1.8454 -2.1361,-1.5946 -2.9942,0.4317 -6.2092,0.88 -11.0166,1.1308 -1.1985,0.081 -1.7822,0.8655 -1.7822,1.7965 0,1.0043 0.7613,1.7655 1.8132,1.7167 z"
       fill="#ffffff"
       fill-opacity="0.85"
       id="path3"
       style="fill:#ffffff;fill-opacity:1" />
  </g>
</svg>
