<?xml version="1.0" encoding="UTF-8"?>
<!--Generator: Apple Native CoreSVG 175.5-->
<!DOCTYPE svg
PUBLIC "-//W3C//DTD SVG 1.1//EN"
       "http://www.w3.org/Graphics/SVG/1.1/DTD/svg11.dtd">
<svg version="1.1" xmlns="http://www.w3.org/2000/svg" xmlns:xlink="http://www.w3.org/1999/xlink" width="48.3469" height="44.2686">
 <g>
  <rect height="44.2686" opacity="0" width="48.3469" x="0" y="0"/>
  <path d="M7.19678 44.2686L41.1594 44.2686C45.929 44.2686 48.3469 41.8279 48.3469 37.1316L48.3469 7.20093C48.3469 2.50464 45.929 0.0639647 41.1594 0.0639647L7.19678 0.0639647C2.43482 0.0639647 0 2.46509 0 7.20093L0 37.1316C0 41.8674 2.43482 44.2686 7.19678 44.2686ZM6.98194 41.2461C4.4004 41.2461 3.02247 39.8943 3.02247 37.2529L3.02247 14.9192C3.02247 12.2947 4.4004 10.926 6.98194 10.926L41.3481 10.926C43.8843 10.926 45.3245 12.2947 45.3245 14.9192L45.3245 37.2529C45.3245 39.8943 43.8843 41.2461 41.3481 41.2461ZM19.3379 19.5923L20.7783 19.5923C21.542 19.5923 21.7424 19.4087 21.7424 18.6526L21.7424 17.2197C21.7424 16.4636 21.542 16.2632 20.7783 16.2632L19.3379 16.2632C18.5742 16.2632 18.3569 16.4636 18.3569 17.2197L18.3569 18.6526C18.3569 19.4087 18.5742 19.5923 19.3379 19.5923ZM27.6099 19.5923L29.0503 19.5923C29.814 19.5923 30.0313 19.4087 30.0313 18.6526L30.0313 17.2197C30.0313 16.4636 29.814 16.2632 29.0503 16.2632L27.6099 16.2632C26.8462 16.2632 26.6289 16.4636 26.6289 17.2197L26.6289 18.6526C26.6289 19.4087 26.8462 19.5923 27.6099 19.5923ZM35.8818 19.5923L37.3223 19.5923C38.0859 19.5923 38.3032 19.4087 38.3032 18.6526L38.3032 17.2197C38.3032 16.4636 38.0859 16.2632 37.3223 16.2632L35.8818 16.2632C35.1182 16.2632 34.9253 16.4636 34.9253 17.2197L34.9253 18.6526C34.9253 19.4087 35.1182 19.5923 35.8818 19.5923ZM11.0659 27.7422L12.4895 27.7422C13.27 27.7422 13.4705 27.5586 13.4705 26.8025L13.4705 25.3696C13.4705 24.6135 13.27 24.4299 12.4895 24.4299L11.0659 24.4299C10.2854 24.4299 10.085 24.6135 10.085 25.3696L10.085 26.8025C10.085 27.5586 10.2854 27.7422 11.0659 27.7422ZM19.3379 27.7422L20.7783 27.7422C21.542 27.7422 21.7424 27.5586 21.7424 26.8025L21.7424 25.3696C21.7424 24.6135 21.542 24.4299 20.7783 24.4299L19.3379 24.4299C18.5742 24.4299 18.3569 24.6135 18.3569 25.3696L18.3569 26.8025C18.3569 27.5586 18.5742 27.7422 19.3379 27.7422ZM27.6099 27.7422L29.0503 27.7422C29.814 27.7422 30.0313 27.5586 30.0313 26.8025L30.0313 25.3696C30.0313 24.6135 29.814 24.4299 29.0503 24.4299L27.6099 24.4299C26.8462 24.4299 26.6289 24.6135 26.6289 25.3696L26.6289 26.8025C26.6289 27.5586 26.8462 27.7422 27.6099 27.7422ZM35.8818 27.7422L37.3223 27.7422C38.0859 27.7422 38.3032 27.5586 38.3032 26.8025L38.3032 25.3696C38.3032 24.6135 38.0859 24.4299 37.3223 24.4299L35.8818 24.4299C35.1182 24.4299 34.9253 24.6135 34.9253 25.3696L34.9253 26.8025C34.9253 27.5586 35.1182 27.7422 35.8818 27.7422ZM11.0659 35.9089L12.4895 35.9089C13.27 35.9089 13.4705 35.7085 13.4705 34.96L13.4705 33.5195C13.4705 32.7634 13.27 32.5798 12.4895 32.5798L11.0659 32.5798C10.2854 32.5798 10.085 32.7634 10.085 33.5195L10.085 34.96C10.085 35.7085 10.2854 35.9089 11.0659 35.9089ZM19.3379 35.9089L20.7783 35.9089C21.542 35.9089 21.7424 35.7085 21.7424 34.96L21.7424 33.5195C21.7424 32.7634 21.542 32.5798 20.7783 32.5798L19.3379 32.5798C18.5742 32.5798 18.3569 32.7634 18.3569 33.5195L18.3569 34.96C18.3569 35.7085 18.5742 35.9089 19.3379 35.9089ZM27.6099 35.9089L29.0503 35.9089C29.814 35.9089 30.0313 35.7085 30.0313 34.96L30.0313 33.5195C30.0313 32.7634 29.814 32.5798 29.0503 32.5798L27.6099 32.5798C26.8462 32.5798 26.6289 32.7634 26.6289 33.5195L26.6289 34.96C26.6289 35.7085 26.8462 35.9089 27.6099 35.9089Z" fill="#ffffff" fill-opacity="0.85"/>
 </g>
</svg>
