<?xml version="1.0" encoding="UTF-8"?>
<!--Generator: Apple Native CoreSVG 175.5-->
<!DOCTYPE svg
PUBLIC "-//W3C//DTD SVG 1.1//EN"
       "http://www.w3.org/Graphics/SVG/1.1/DTD/svg11.dtd">
<svg version="1.1" xmlns="http://www.w3.org/2000/svg" xmlns:xlink="http://www.w3.org/1999/xlink" width="44.2046" height="44.2686">
 <g>
  <rect height="44.2686" opacity="0" width="44.2046" x="0" y="0"/>
  <path d="M7.19678 44.2686L37.0002 44.2686C41.7866 44.2686 44.2046 41.8279 44.2046 37.1316L44.2046 7.20093C44.2046 2.50464 41.7866 0.0639647 37.0002 0.0639647L7.19678 0.0639647C2.43482 0.0639647 0 2.46509 0 7.20093L0 37.1316C0 41.8674 2.43482 44.2686 7.19678 44.2686ZM7.25318 41.2461C4.50147 41.2461 3.02247 39.8008 3.02247 36.9817L3.02247 7.35083C3.02247 4.53174 4.50147 3.08643 7.25318 3.08643L36.9514 3.08643C39.6484 3.08643 41.1821 4.53174 41.1821 7.35083L41.1821 36.9817C41.1821 39.8008 39.6484 41.2461 36.9514 41.2461ZM5.24195 42.2022L39.019 42.2022C37.8586 35.4478 30.7393 30.0208 22.1389 30.0208C13.5217 30.0208 6.40992 35.4478 5.24195 42.2022ZM22.1145 25.9815C26.7246 26.0151 30.3809 22.0962 30.3809 16.9321C30.3809 12.0703 26.7246 8.06299 22.1145 8.06299C17.4968 8.06299 13.8313 12.0703 13.8481 16.9321C13.865 22.0962 17.4968 25.9478 22.1145 25.9815Z" fill="#ffffff" fill-opacity="0.85"/>
 </g>
</svg>
