<?xml version="1.0" encoding="UTF-8" standalone="no"?>
<!DOCTYPE svg PUBLIC "-//W3C//DTD SVG 1.1//EN" "http://www.w3.org/Graphics/SVG/1.1/DTD/svg11.dtd">
<!-- Created with Vectornator (http://vectornator.io/) -->
<svg height="100%" stroke-miterlimit="10" style="fill-rule:nonzero;clip-rule:evenodd;stroke-linecap:round;stroke-linejoin:round;" version="1.1" viewBox="0 0 1000 1000" width="100%" xml:space="preserve" xmlns="http://www.w3.org/2000/svg" xmlns:vectornator="http://vectornator.io" xmlns:xlink="http://www.w3.org/1999/xlink">
<defs/>
<g id="Layer-1" vectornator:layerName="Layer 1">
<path d="M500.414 6C223.698 6 0 231.347 0 510.132C0 732.98 143.331 921.616 342.169 988.38C367.029 993.399 376.135 977.532 376.135 964.186C376.135 952.498 375.315 912.438 375.315 870.697C236.112 900.75 207.125 810.601 207.125 810.601C184.754 752.175 151.607 737.159 151.607 737.159C106.046 706.276 154.926 706.276 154.926 706.276C205.465 709.615 231.984 758.024 231.984 758.024C276.716 834.806 348.796 813.111 377.794 799.754C381.932 767.202 395.197 744.667 409.281 732.15C298.257 720.463 181.445 677.063 181.445 483.418C181.445 428.331 201.317 383.262 232.804 348.21C227.836 335.693 210.433 283.935 237.782 214.661C237.782 214.661 280.035 201.304 375.305 266.409C416.094 255.374 458.159 249.76 500.414 249.713C542.666 249.713 585.738 255.562 625.512 266.409C720.793 201.304 763.045 214.661 763.045 214.661C790.394 283.935 772.981 335.693 768.013 348.21C800.33 383.262 819.382 428.331 819.382 483.418C819.382 677.063 702.57 719.623 590.716 732.15C608.949 748.006 624.682 778.049 624.682 825.628C624.682 893.232 623.863 947.489 623.863 964.175C623.863 977.532 632.979 993.399 657.829 988.39C856.667 921.605 999.998 732.98 999.998 510.132C1000.82 231.347 776.3 6 500.414 6Z" fill="#f1efe1" fill-rule="evenodd" opacity="1" stroke="none" vectornator:layerName="path"/>
</g>
</svg>
