<?xml version="1.0" encoding="UTF-8" standalone="no"?>
<!DOCTYPE svg PUBLIC "-//W3C//DTD SVG 1.1//EN" "http://www.w3.org/Graphics/SVG/1.1/DTD/svg11.dtd">
<!-- Created with Vectornator (http://vectornator.io/) -->
<svg height="100%" stroke-miterlimit="10" style="fill-rule:nonzero;clip-rule:evenodd;stroke-linecap:round;stroke-linejoin:round;" version="1.1" viewBox="0 0 1000 1000" width="100%" xml:space="preserve" xmlns="http://www.w3.org/2000/svg" xmlns:vectornator="http://vectornator.io" xmlns:xlink="http://www.w3.org/1999/xlink">
<defs/>
<clipPath id="ArtboardFrame">
<rect height="1000" width="1000" x="0" y="0"/>
</clipPath>
<g clip-path="url(#ArtboardFrame)" id="Layer-1" vectornator:layerName="Layer 1">
<path d="M500 90.125C633.5 90.125 649.333 90.625 702.083 93.0417C837.583 99.2083 900.875 163.5 907.042 298C909.458 350.708 909.917 366.542 909.917 500.042C909.917 633.583 909.417 649.375 907.042 702.083C900.833 836.458 837.708 900.875 702.083 907.042C649.333 909.458 633.583 909.958 500 909.958C366.5 909.958 350.667 909.458 297.958 907.042C162.125 900.833 99.1667 836.25 93 702.042C90.5833 649.333 90.0833 633.542 90.0833 500C90.0833 366.5 90.625 350.708 93 297.958C99.2083 163.5 162.333 99.1667 297.958 93C350.708 90.625 366.5 90.125 500 90.125ZM500 0C364.208 0 347.208 0.583333 293.875 3C112.292 11.3333 11.375 112.083 3.04167 293.833C0.583333 347.208-1.85037e-14 364.208-1.85037e-14 500C-1.85037e-14 635.792 0.583333 652.833 3 706.167C11.3333 887.75 112.083 988.667 293.833 997C347.208 999.417 364.208 1000 500 1000C635.792 1000 652.833 999.417 706.167 997C887.583 988.667 988.75 887.917 996.958 706.167C999.417 652.833 1000 635.792 1000 500C1000 364.208 999.417 347.208 997 293.875C988.833 112.458 887.958 11.375 706.208 3.04167C652.833 0.583333 635.792 0 500 0ZM500 243.25C358.208 243.25 243.25 358.208 243.25 500C243.25 641.792 358.208 756.792 500 756.792C641.792 756.792 756.75 641.833 756.75 500C756.75 358.208 641.792 243.25 500 243.25ZM500 666.667C407.958 666.667 333.333 592.083 333.333 500C333.333 407.958 407.958 333.333 500 333.333C592.042 333.333 666.667 407.958 666.667 500C666.667 592.083 592.042 666.667 500 666.667ZM766.917 173.125C733.75 173.125 706.875 200 706.875 233.125C706.875 266.25 733.75 293.125 766.917 293.125C800.042 293.125 826.875 266.25 826.875 233.125C826.875 200 800.042 173.125 766.917 173.125Z" fill="#fffdec" fill-rule="nonzero" opacity="1" stroke="none" vectornator:layerName="path"/>
</g>
</svg>
