<?xml version="1.0" encoding="UTF-8" standalone="no"?>
<!DOCTYPE svg PUBLIC "-//W3C//DTD SVG 1.1//EN" "http://www.w3.org/Graphics/SVG/1.1/DTD/svg11.dtd">
<!-- Created with Vectornator (http://vectornator.io/) -->
<svg height="100%" stroke-miterlimit="10" style="fill-rule:nonzero;clip-rule:evenodd;stroke-linecap:round;stroke-linejoin:round;" version="1.1" viewBox="0 0 1000 1000" width="100%" xml:space="preserve" xmlns="http://www.w3.org/2000/svg" xmlns:xlink="http://www.w3.org/1999/xlink">
<defs/>
<g id="Layer-1">
<g opacity="1">
<path d="M30.6303 49.9736L969.37 49.9736L969.37 49.9736L969.37 950.026L969.37 950.026L30.6303 950.026L30.6303 950.026L30.6303 49.9736L30.6303 49.9736Z" fill="#f3f1e5" fill-rule="nonzero" opacity="0" stroke="none"/>
<path d="M91.0969 934.491C106.391 934.491 119.805 929.008 137.88 919.055L353.953 801.308L588.371 933.925C607.442 944.733 627.208 950.026 646.39 950.026C665.319 950.026 684.011 944.86 701.55 934.763L920.214 810.552C951.183 793.345 964.503 769.486 964.503 735.373L964.503 133.826C964.503 96.1734 941.403 72.9317 903.925 72.9317C888.743 72.9317 875.439 79.0774 857.253 88.7942L634.416 212.357L402.654 73.1179C384.752 62.8949 365.587 57.9492 346.072 57.9492C327.333 57.9492 308.578 62.6738 291.782 72.344L74.9187 196.539C43.9502 213.983 30.6303 236.61 30.6303 270.961L30.6303 873.912C30.6303 911.692 53.7295 934.491 91.0969 934.491ZM313.129 725.245L129.365 826.64C126.284 828.237 123.187 829.279 120.769 829.279C115.176 829.279 111.842 824.714 111.842 817.967L111.842 293.963C111.842 280.644 116.109 272.995 128.655 265.853L299.142 166.432C303.805 163.525 308.119 161.423 313.129 158.752L313.129 725.245ZM395.889 725.296L395.889 169.053C400.409 171.25 405.512 174.031 409.795 176.465L599.244 290.328L599.244 840.47C593.665 837.689 587.74 834.67 582.161 831.526L395.889 725.296ZM682.241 845.749L682.241 281.767L865.657 181.777C868.423 180.165 870.952 179.359 873.479 179.359C879.42 179.359 883.29 183.688 883.29 189.993L883.29 711.139C883.29 724.457 878.803 732.454 866.715 739.486L701.899 835.003C695.419 838.938 688.72 842.288 682.241 845.749Z" fill="#f3f1e5" fill-rule="nonzero" opacity="1" stroke="none"/>
</g>
</g>
</svg>
