<?xml version="1.0" encoding="UTF-8" standalone="no"?>
<!DOCTYPE svg PUBLIC "-//W3C//DTD SVG 1.1//EN" "http://www.w3.org/Graphics/SVG/1.1/DTD/svg11.dtd">
<!-- Created with Vectornator (http://vectornator.io/) -->
<svg height="100%" stroke-miterlimit="10" style="fill-rule:nonzero;clip-rule:evenodd;stroke-linecap:round;stroke-linejoin:round;" version="1.1" viewBox="0 0 40 40" width="100%" xml:space="preserve" xmlns="http://www.w3.org/2000/svg" xmlns:vectornator="http://vectornator.io" xmlns:xlink="http://www.w3.org/1999/xlink">
<defs/>
<g id="Untitled" vectornator:layerName="Untitled">
<path d="M19.9998 20L19.9998 24.5M19.9998 20L23.849 17.8348M19.9998 20L16.1507 17.8348M33.3332 12.5L29.484 14.6651M33.3332 12.5L33.3332 17M33.3332 12.5L29.484 10.3348M10.5157 25.3348L6.6665 27.5M6.6665 27.5L10.5157 29.6651M6.6665 27.5L6.6665 23M6.6665 12.5L10.5157 14.6651M6.6665 12.5L10.5157 10.3348M6.6665 12.5L6.6665 17M29.484 25.3348L33.3332 27.5M33.3332 27.5L29.484 29.6651M33.3332 27.5L33.3332 23M19.9998 5L19.9998 9.5M19.9998 5L16.1505 7.16515M19.9998 5L23.8491 7.16515M19.9998 30.5L19.9998 35M19.9998 35L23.849 32.8348M19.9998 35L16.1507 32.8348" fill="none" opacity="1" stroke="#ffffff" stroke-linecap="round" stroke-linejoin="round" stroke-width="2" vectornator:layerName="path"/>
</g>
</svg>
