<?xml version="1.0" encoding="UTF-8" standalone="no"?>
<!DOCTYPE svg PUBLIC "-//W3C//DTD SVG 1.1//EN" "http://www.w3.org/Graphics/SVG/1.1/DTD/svg11.dtd">
<!-- Created with Vectornator (http://vectornator.io/) -->
<svg height="100%" stroke-miterlimit="10" style="fill-rule:nonzero;clip-rule:evenodd;stroke-linecap:round;stroke-linejoin:round;" version="1.1" viewBox="0 0 1871.22 649.718" width="100%" xml:space="preserve" xmlns="http://www.w3.org/2000/svg" xmlns:xlink="http://www.w3.org/1999/xlink">
<defs/>
<clipPath id="ArtboardFrame">
<rect height="649.718" width="1871.22" x="0" y="0"/>
</clipPath>
<g clip-path="url(#ArtboardFrame)" id="Layer-1">
<g opacity="1">
<path d="M315.574 239.217C299.733 231.296 283.704 224.37 265.598 222.861C261.662 222.533 239.462 225.802 236.521 222.861C240.206 215.49 245.328 201.057 244.699 192.875C244.329 188.077 228.223 177.308 225.617 174.702C220.84 169.925 216.473 157.901 208.352 159.254C203.675 160.034 198.139 166.592 194.722 169.25C174.641 184.868 166.526 201.089 152.923 219.226C149.063 224.373 146.786 243.912 139.293 245.578C121.672 249.494 102.255 248.368 86.5905 260.116C10.3982 317.26-2.12728 378.465 0.266923 471.835C0.562323 483.359 7.36532 504.565 13.8968 515.451C27.936 538.85 50.7491 569.189 79.3205 576.332C87.4505 578.365 96.7915 578.484 104.764 580.875C108.831 582.096 114.402 588.476 118.394 590.871C131.079 598.481 147.064 605.211 162.01 606.318C174.089 607.213 176.92 608.497 185.635 606.318C189.443 605.366 194.508 601.775 198.357 601.775C211.825 601.775 219.389 614.008 235.612 609.953C246.106 607.329 260.143 587.612 262.872 587.236C285.628 584.097 303.114 586.652 323.752 576.332C330.82 572.798 346.614 556.915 352.83 558.159C357.362 559.065 363.256 565.686 367.368 568.154C376.969 573.915 387.593 577.827 398.263 580.875C415.777 585.879 433.607 588.145 451.874 588.145C458.992 588.145 465.68 584.51 472.774 584.51C484.347 584.51 496.959 593.018 509.12 593.597C519.714 594.101 530.318 594.505 540.924 594.505C556.868 594.505 568.607 584.752 581.814 578.149C598.807 595.143 631.268 604.633 652.69 591.779C661.569 586.452 668.996 573.628 677.224 569.971C682.233 567.745 702.14 571.789 705.392 571.789C711.91 571.789 719.107 569.947 725.383 568.154C739.682 564.069 752.786 557.24 764.455 548.163C768.657 544.896 773.056 539.271 778.085 537.259C784.183 534.821 792.461 534.891 798.985 532.716C819.155 525.993 833.537 512.704 848.961 498.187C855.249 502.379 859.525 531.05 866.226 539.985C873.741 550.006 879.757 559.877 888.943 569.063C894.947 575.067 903.962 576.394 909.842 581.784C920.447 591.505 926.809 599.597 938.011 606.318C952.421 614.965 971.698 617.222 987.988 617.222C992.758 617.222 996.948 613.587 1001.62 613.587C1006.68 613.587 1013.2 623.07 1018.88 624.491C1029.33 627.102 1038.37 629.943 1049.78 629.943C1064.51 629.943 1071.95 618.614 1084.31 614.496C1089.53 612.755 1099.65 619.577 1105.21 619.948C1112.77 620.452 1120.35 620.857 1127.92 620.857C1147.12 620.857 1157.77 603.257 1174.27 599.957C1179.49 598.912 1186.26 603.881 1191.53 604.501C1203.96 605.962 1224.22 603.611 1235.15 595.414C1250.08 584.213 1264.41 572.683 1274.22 556.341C1276.54 552.475 1281.8 535.591 1286.03 534.533C1301.98 530.546 1317.39 536.574 1334.19 528.173C1340.07 534.049 1341.82 549.075 1345.1 557.25C1354.27 580.19 1373.62 605.808 1394.16 618.131C1408.79 626.906 1427.15 631.158 1444.14 629.035C1449.31 628.388 1456.24 623.753 1461.4 624.491C1464.59 624.947 1468.64 630.844 1472.31 631.761C1478.54 633.318 1487.4 639.597 1493.21 639.939C1502.88 640.508 1512.61 640.508 1522.28 639.939C1529.73 639.501 1539.04 627.217 1545.91 627.217C1554.18 627.217 1565.6 639.492 1574.08 639.939C1584.97 640.512 1595.9 640.512 1606.79 639.939C1607.69 639.891 1614.69 637.344 1615.88 637.213C1624.85 636.216 1633.43 627.217 1642.23 627.217C1648.53 627.217 1657.13 639.593 1664.04 639.939C1675.53 640.513 1687.07 640.513 1698.57 639.939C1716.72 639.031 1734.9 614.113 1748.54 606.318C1755.15 602.542 1766.45 602.064 1773.99 599.049C1792.59 591.606 1809.79 579.599 1823.96 565.428C1861.26 528.127 1861.71 480.574 1860.31 430.037C1859.65 406.356 1843.24 376.285 1828.51 357.344C1802.3 323.645 1760.1 298.631 1716.74 296.463C1707.05 295.979 1697.36 295.554 1687.66 295.554C1682.2 295.554 1677.45 298.209 1672.21 296.463C1683.45 285.226 1699.63 280.86 1710.38 270.112C1716.82 263.672 1712.2 251.958 1712.2 242.852C1712.2 230.563 1700.66 225.587 1690.39 225.587C1660.98 225.587 1639.01 249.336 1614.06 255.573C1595.53 260.205 1575.89 255.573 1556.81 255.573C1555.86 255.573 1555 256.785 1554.09 256.482C1549.11 254.821 1546.49 232.597 1545 227.404C1538.13 203.355 1524.94 177.69 1510.47 157.437C1473.21 105.27 1441.01 92.8205 1383.26 78.3825C1374.46 76.1825 1368.06 62.7695 1357.82 60.2095C1343.02 56.5085 1328.51 52.9815 1313.29 50.2135C1308.18 49.2855 1306.34 37.2735 1301.48 32.9495C1293.31 25.6895 1274.07 22.9535 1264.22 22.9535C1253.75 22.9535 1242.22 43.2015 1236.96 50.2135C1224.28 43.8735 1208.8 43.8535 1195.17 43.8535C1157.07 43.8535 1129.73 69.3035 1105.21 93.8295C1098.84 100.194 1070.1 103.08 1059.77 109.278C1021.05 132.511 972.578 165.46 960.727 212.866C954.761 236.729 943.696 256.291 941.645 281.924C941.235 287.057 939.343 292.766 941.645 297.372C938.749 300.268 906.412 314.304 905.299 312.819C902.611 309.236 901.388 299.268 899.847 294.646C894.015 277.15 889.429 259.06 882.582 241.943C864.88 197.687 838.191 158.48 804.437 124.725C758.924 79.2115 679.141 61.0265 618.16 66.5695C604.474 67.8145 590.509 70.0565 577.27 73.8395C571.064 75.6125 560.634 82.9255 554.554 82.9255C553.305 82.9255 524.211 46.6635 520.933 43.8535C492.246 19.2645 439.661-2.52747 403.715 0.23753C399.505 0.56153 376.586 34.6425 377.364 39.3095C379.662 53.0985 395.407 59.0285 404.624 66.5695C423.602 82.0975 441.345 107.503 439.153 133.812C438.956 136.174 421.659 138.129 418.254 139.264C406.2 143.282 396.039 150.439 385.542 157.437C353.474 178.816 336.03 208.533 315.574 239.217Z" fill="#170f0d" fill-rule="nonzero" opacity="1" stroke="none"/>
<path d="M545.467 148.35C511.768 156.775 499.153 209.915 495.49 239.217C493.136 258.05 491.81 276.568 490.947 295.554C488.717 344.621 495.345 395.143 513.664 440.941C518.214 452.317 521.215 470.3 530.02 479.105C532.005 477.781 571.442 499.853 580.905 503.639C617.282 518.19 649.421 508.725 675.406 482.739C677.317 480.829 695.922 454.299 696.306 451.845C700.089 427.633 696.606 400.639 693.58 376.426C683.12 292.746 645.93 178.506 545.467 148.35Z" fill="#f08a24" fill-rule="nonzero" opacity="1" stroke="none"/>
<path d="M809.889 427.311C810.797 428.219 810.797 428.219 811.706 429.128C820.286 420.549 814.066 365.316 812.615 350.074C805.513 275.508 773.162 204.307 719.931 151.076C714.539 145.685 700.481 146.165 693.58 139.264C695.851 136.992 695.851 136.992 698.123 134.72C677.161 113.758 614.438 104.57 590.9 109.278C583.5 110.758 550.903 124.694 555.462 133.812C557.606 138.099 577.338 141.653 582.722 143.807C601.547 151.337 620.333 168.949 632.699 183.788C678.093 238.261 700.617 319.014 707.21 388.238C709.289 410.068 704.888 433.576 708.118 454.571C709.973 466.626 742.85 464.566 759.912 464.566C777.803 464.566 801.065 440.546 809.889 427.311Z" fill="#f08a24" fill-rule="nonzero" opacity="1" stroke="none"/>
<path d="M1262.41 187.423C1237.98 192.309 1223.56 190.465 1206.07 210.14C1205.92 210.305 1207.55 219.667 1206.98 221.952C1205.54 227.707 1202.63 234.187 1202.43 240.126C1201.88 257.081 1201.53 274.046 1201.53 291.011C1201.53 301.057 1213.1 324.207 1208.8 332.81C1214.94 338.957 1225.28 341.338 1232.42 346.44C1249.84 358.884 1273.93 380.705 1279.67 403.686C1284.11 421.459 1291.45 438.493 1292.39 457.297C1292.9 467.353 1286.77 483.317 1296.03 487.283C1304.81 491.047 1321.49 472.941 1326.01 469.109C1338.5 458.541 1336.8 421.176 1346 402.777C1357.64 379.506 1354.98 371.317 1349.64 344.622C1341.26 302.733 1317.13 203.543 1262.41 187.423Z" fill="#f08a24" fill-rule="nonzero" opacity="1" stroke="none"/>
<path d="M1529.55 370.065C1445.82 378.438 1423.42 501.525 1441.41 564.519C1444.96 576.926 1472.87 577.121 1475.94 586.327C1490.6 586.327 1504.71 591.779 1519.56 591.779C1529.71 591.779 1553.51 587.878 1562.27 580.875C1570.53 574.264 1576.53 518.253 1576.8 509.091C1577.3 492.739 1577.71 476.382 1577.71 460.023C1577.71 439.651 1577.74 407.473 1563.17 390.964C1558.21 385.341 1554.17 374.046 1546.82 375.517C1539.14 377.054 1547.7 399.865 1548.64 405.503C1552.21 426.949 1551.53 460.931 1521.38 460.931C1510.92 460.931 1511.38 442.843 1511.38 437.306C1511.38 422.097 1517.71 408.283 1524.1 395.508C1527.45 388.807 1545.65 375.839 1529.55 370.065Z" fill="#f08a24" fill-rule="nonzero" opacity="1" stroke="none"/>
<path d="M405.532 478.196C406.441 477.287 406.441 477.287 407.35 476.379C420.918 489.947 459.14 503.869 476.408 490.917C483.891 485.305 494.126 477.745 497.308 468.201C498.729 463.936 500.324 457.915 503.668 454.571C476.9 401.034 477.317 329.142 477.317 272.838C477.317 271.058 478.832 255.416 479.134 252.847C481.479 232.92 485.292 212.465 492.764 193.784C494.642 189.089 507.825 166.785 503.668 164.706C499.602 162.673 488.463 169.516 484.586 171.067C479.93 172.929 464.492 177.74 462.778 182.88C456.956 200.348 448.168 215.77 440.97 233.765C431.221 258.137 421.149 280.923 410.984 304.641C406.269 315.644 407.218 330.512 403.715 341.896C402.292 346.521 398.644 358.912 395.537 362.796C394.586 363.984 387.414 369.295 387.359 370.065C386.099 387.712 387.87 404.677 390.994 421.859C393.567 436.012 394.941 467.605 405.532 478.196Z" fill="#f08a24" fill-rule="nonzero" opacity="1" stroke="none"/>
<path d="M433.701 149.259C329.457 175.32 291.894 317.584 299.218 409.138C300.706 427.738 308.366 481.892 322.844 496.369C328.29 493.646 334.951 497.512 340.108 493.643C356.626 481.255 371.877 462.83 380.09 443.667C382.277 438.564 377.23 427.285 376.455 421.859C373.957 404.372 371.912 385.816 371.912 368.248C371.912 333.75 377.985 301.104 387.359 268.294C396.853 235.064 415.61 208.532 438.244 182.88C442.169 178.431 440.943 151.958 433.701 149.259Z" fill="#f08a24" fill-rule="nonzero" opacity="1" stroke="none"/>
<path d="M201.083 317.362C194.524 317.958 182.829 317.472 176.549 320.088C157.308 328.105 146.314 403.132 145.654 417.315C145.091 429.418 144.386 441.613 145.654 453.662C147.053 466.953 149.693 479.813 152.923 492.735C156.953 508.852 161.615 534.138 173.823 546.346C177.84 544.337 184.109 548.127 188.361 549.072C202.224 552.153 227.714 555.529 239.247 545.437C267.193 520.984 259.511 499.827 253.785 465.475C245.638 416.59 239.141 356.985 201.083 317.362Z" fill="#f08a24" fill-rule="nonzero" opacity="1" stroke="none"/>
<path d="M623.612 79.2915C615.739 80.1665 541.361 85.1805 563.64 107.46C586.571 95.9945 612.899 95.0735 638.151 99.2815C729.478 114.504 779.065 194.415 810.797 273.746C816.193 287.235 816.253 304.649 822.61 317.362C824.909 321.959 834.213 328.513 838.057 332.81C841.916 337.122 845.778 341.439 849.87 345.531C853.504 349.165 869.994 359.516 875.313 355.526C877.104 354.183 877.329 348.598 878.947 346.44C882.703 341.432 889.736 334.973 891.669 329.175C896.41 314.951 875.216 265.781 868.952 250.121C831.187 155.707 765.852 91.6625 623.612 79.2915Z" fill="#f08a24" fill-rule="nonzero" opacity="1" stroke="none"/>
<path d="M994.348 565.428C995.258 564.974 995.258 564.974 996.168 564.519C1013.68 582.037 1038.71 585.419 1062.5 585.419C1074.81 585.419 1083.35 570.896 1094.3 567.245C1094.3 539.315 1098.08 513.595 1093.39 485.465C1090.51 468.152 1086.41 450.555 1081.58 433.671C1071.93 399.881 1053.41 357.343 1015.25 395.508C1011.18 399.578 1008.2 405.139 1005.25 410.046C985.288 443.319 980.548 483.743 984.348 521.812C985.478 533.069 985.818 556.896 994.348 565.428Z" fill="#f08a24" fill-rule="nonzero" opacity="1" stroke="none"/>
<path d="M1368.72 567.245C1379.17 562.022 1386.18 576.883 1397.8 563.611C1398.52 562.786 1400.51 556.824 1400.52 556.341C1401.11 539.996 1399.66 523.607 1400.52 507.273C1400.88 500.597 1404.85 507.961 1405.98 502.73C1411.16 478.515 1415.44 463.766 1430.51 443.667C1431.87 444.575 1431.87 444.575 1433.24 445.484C1437.74 440.979 1438.12 431.095 1442.32 425.493C1454.09 409.8 1463.28 394.545 1477.76 380.06C1482.83 374.994 1493.06 366.468 1500.48 364.613C1507.16 362.943 1517.41 361.31 1522.28 356.435C1483.36 309.721 1412.55 341.681 1377.81 376.426C1334.77 419.461 1336.78 519.34 1368.72 567.245Z" fill="#f08a24" fill-rule="nonzero" opacity="1" stroke="none"/>
<path d="M1632.23 339.17C1633.6 340.988 1633.6 340.988 1634.96 342.805C1699.09 321.427 1753.57 385.377 1769.44 440.941C1774.24 457.727 1774.37 475.198 1778.53 491.826C1779.45 495.526 1784.14 495.4 1786.71 495.461C1798.22 495.735 1809.72 496.369 1821.24 496.369C1829.04 496.369 1838.99 483.894 1843.95 486.374C1846.77 483.557 1845.68 478.544 1845.77 474.561C1845.99 465.17 1846.68 455.787 1846.68 446.393C1846.68 431.632 1842.22 416.659 1837.59 402.777C1816.2 338.608 1752.5 307.367 1688.57 307.367C1663.06 307.367 1645.76 318.874 1632.23 339.17Z" fill="#f08a24" fill-rule="nonzero" opacity="1" stroke="none"/>
<path d="M1753.99 553.615C1754.9 554.524 1754.9 554.524 1755.81 555.433C1764.84 546.404 1764.01 516.972 1764.9 505.456C1768.52 458.371 1748.61 402.416 1711.29 371.882C1683.85 349.433 1645.31 340.227 1618.6 369.156C1616.1 371.867 1638.42 383.707 1640.41 385.512C1652.92 396.83 1671.33 415.574 1675.85 433.671C1684.13 466.811 1692.21 492.81 1692.21 529.081C1692.21 532.62 1684.72 566.747 1684.94 567.245C1686.47 570.824 1692.37 572.003 1695.84 572.697C1719.82 577.494 1736.42 567.673 1753.99 553.615Z" fill="#f08a24" fill-rule="nonzero" opacity="1" stroke="none"/>
<path d="M1578.62 390.964C1588.52 410.758 1588.79 441.632 1589.53 462.749C1590.73 497.137 1592.5 546.76 1575.9 579.967C1590.65 594.721 1630.93 591.004 1648.59 579.967C1653.31 577.014 1662.67 565.197 1668.58 568.154C1674.15 562.588 1676.5 543.839 1676.76 536.351C1677.28 521.515 1677.67 506.671 1677.67 491.826C1677.67 462.577 1661.9 427.387 1643.14 405.503C1627.67 387.459 1599.14 370.448 1578.62 390.964Z" fill="#f08a24" fill-rule="nonzero" opacity="1" stroke="none"/>
<path d="M971.628 293.737C950.842 272.947 992.858 251.938 1012.52 251.938C1018.38 251.938 1022.73 260.04 1027.97 253.756C1036.95 242.977 1043.52 227.467 1053.41 215.592C1078.2 185.843 1107.26 162.508 1141.55 151.076C1153.08 147.234 1173.61 138.029 1186.99 144.716C1189.82 141.882 1189.98 136.778 1191.53 132.903C1192.82 129.69 1195.17 125.539 1195.17 121.999C1195.17 113.456 1153.89 105.992 1148.82 105.643C1142.77 105.226 1136.72 104.734 1130.65 104.734C1095.58 104.734 1050.96 124.614 1025.24 148.35C993.988 177.198 974.078 209.77 962.545 250.121C958.699 263.581 944.071 301.43 968.905 296.463C970.165 296.211 970.718 294.646 971.628 293.737Z" fill="#f08a24" fill-rule="nonzero" opacity="1" stroke="none"/>
<path d="M1108.84 553.615C1113.39 558.159 1121.5 556.598 1127.92 556.341C1144.63 555.673 1163.96 546.773 1176.99 536.351C1182.18 532.204 1189.36 522.837 1195.17 520.903C1195.17 467.642 1185.55 424.963 1147.01 386.421C1132.06 371.473 1084.91 357.952 1078.86 388.238C1078.3 391.018 1089.24 415.051 1090.67 420.041C1099.69 451.611 1108.02 484.366 1109.75 517.269C1110.02 522.422 1112.84 545.613 1108.84 553.615Z" fill="#f08a24" fill-rule="nonzero" opacity="1" stroke="none"/>
<path d="M1298.75 147.442C1300.12 148.805 1300.12 148.805 1301.48 150.168C1300.12 151.531 1300.12 151.531 1298.75 152.894C1290.41 148.723 1275.01 175.113 1276.95 178.336C1280.4 184.087 1299.69 189.74 1306.02 199.236C1312.47 192.79 1301.07 192.38 1306.93 186.514C1333.39 212.969 1358 248.483 1373.26 282.833C1378.98 295.705 1381.18 316.196 1391.44 326.449C1406.96 313.512 1418.71 300.092 1436.87 291.011C1441.71 288.59 1466.36 284.888 1465.04 278.29C1462.84 267.283 1456.09 257.612 1450.5 248.304C1427.37 209.745 1394.74 178.168 1355.09 158.346C1344.61 153.105 1305.47 140.725 1298.75 147.442Z" fill="#f08a24" fill-rule="nonzero" opacity="1" stroke="none"/>
<path d="M1151.55 335.536C1145.04 335.398 1107.93 345.648 1107.93 355.526C1107.93 356.618 1108.81 357.69 1109.75 358.252C1116.92 362.553 1130.98 362.053 1139.74 366.43C1157.6 375.361 1171.48 392.687 1182.44 409.138C1194.73 427.563 1203 449.941 1206.98 471.835C1208.94 482.633 1206.83 495.372 1210.61 505.456C1212.08 509.361 1222.79 511.565 1226.06 511.817C1232.41 512.305 1238.77 512.725 1245.14 512.725C1251.39 512.725 1255.76 508.353 1260.59 505.456C1291.31 487.023 1280.14 445.997 1270.58 417.315C1252.43 362.859 1205.52 336.675 1151.55 335.536Z" fill="#f08a24" fill-rule="nonzero" opacity="1" stroke="none"/>
<path d="M120.211 315.545C123.846 319.634 123.846 319.634 127.481 323.723C104.072 347.131 86.1385 371.121 69.3255 399.142C66.8789 403.22 59.508 410.968 58.4215 414.589C53.3355 431.543 56.0768 453.033 59.3301 470.927C61.572 483.257 64.6128 501.652 73.8685 510.908C74.7775 509.999 74.7775 509.999 75.6865 509.091C94.4285 527.834 126.012 539.287 141.111 509.091C145.852 499.609 135.176 474.576 133.841 464.566C130.41 438.832 130.103 412.89 134.75 387.33C138.141 368.676 144.478 350.609 152.923 333.718C154.36 330.846 163.058 322.441 161.101 319.18C158.244 314.417 138.556 307.367 132.933 307.367C129.248 307.367 123.257 313.515 120.211 315.545Z" fill="#f08a24" fill-rule="nonzero" opacity="1" stroke="none"/>
<path d="M1515.02 268.294C1520.97 265.319 1533.18 265.281 1536.82 259.208C1539.84 254.173 1532.06 237.527 1530.46 231.948C1522.59 204.376 1507.94 175.838 1489.57 153.802C1488.66 154.711 1488.66 154.711 1487.76 155.62C1478.25 150.869 1469.91 141.276 1460.5 135.629C1437.93 122.087 1417.86 109.743 1393.25 105.643C1391.39 105.332 1389.23 101.685 1386.89 101.1C1381.79 99.8225 1372.94 99.4685 1367.81 99.2815C1353.88 98.7755 1339.95 98.3735 1326.01 98.3735C1318.94 98.3735 1311.86 100.782 1305.11 102.008C1286.39 105.413 1286.03 103.851 1286.03 128.36C1286.03 130.802 1286.11 133.334 1286.94 135.629C1288.94 141.137 1309.46 137.387 1319.65 136.538C1323.42 136.224 1326.99 133.345 1329.65 132.903C1342.6 130.744 1360.62 134.996 1372.36 139.264C1413.71 154.301 1453.24 187.508 1482.3 221.044C1495.11 235.826 1502.13 255.407 1515.02 268.294Z" fill="#f08a24" fill-rule="nonzero" opacity="1" stroke="none"/>
<path d="M234.703 288.285C230.502 292.486 219.357 307.874 220.165 311.91C221.154 316.86 228.311 323.671 231.069 328.266C237.583 339.124 241.573 353.419 245.607 365.522C259.838 408.215 266.574 457.236 270.141 501.821C271.331 516.695 272.533 531.402 271.958 546.346C271.756 551.6 265.849 565.272 267.415 569.971C269.835 577.231 283.6 572.726 289.223 571.789C303.56 569.399 332.938 560.688 340.108 546.346C300.442 506.68 287.851 447.987 285.588 393.69C284.85 375.96 284.436 359.419 286.497 341.896C287.513 333.259 292.992 317.643 291.04 309.184C289.07 300.646 252.86 290.402 234.703 288.285Z" fill="#db4e24" fill-rule="nonzero" opacity="1" stroke="none"/>
<path d="M1161.54 298.28C1163.77 296.052 1166.22 262.827 1168.81 253.756C1176.29 227.582 1189.97 205.576 1211.52 188.332C1207.21 184.018 1201.8 184.678 1196.98 181.062C1190.97 176.554 1187.68 170.847 1182.44 165.615C1181.96 165.136 1181.29 164.818 1180.63 164.706C1131.92 156.588 1063.27 231.051 1067.04 280.107C1067.36 284.286 1082.11 282.104 1086.13 282.833C1093.81 284.231 1112.11 296.463 1116.11 296.463C1124.94 296.463 1135.41 293.737 1144.28 293.737C1149.81 293.737 1156.63 295.823 1161.54 298.28Z" fill="#f08a24" fill-rule="nonzero" opacity="1" stroke="none"/>
<path d="M127.481 259.208C31.2592 278.452-3.17378 407.999 20.2575 490.009C26.9265 513.35 41.7784 534.007 61.1475 549.072C65.4624 552.428 80.4025 565.255 85.6815 559.976C78.7535 546.12 64.1176 533.693 60.2388 518.177C56.2788 502.337 48.7227 487.551 45.7002 470.927C39.1253 434.765 45.2756 402.93 58.4215 370.065C66.354 350.234 83.8725 331.893 98.4025 317.362C100.457 315.309 125.502 298.055 125.663 297.372C126.634 293.244 125.428 288.884 125.663 284.65C126.017 278.287 137.564 263.839 127.481 259.208Z" fill="#f08a24" fill-rule="nonzero" opacity="1" stroke="none"/>
<path d="M501.851 454.571C493.765 462.656 491.54 475.786 481.86 485.465C463.801 503.525 422.776 489.987 407.35 474.561C400.199 481.712 414.97 505.248 419.162 513.634C437.545 550.399 473.81 576.806 515.481 579.058C531.682 579.934 540.07 581.119 553.645 577.241C556.61 576.394 573.087 569.672 570.001 565.428C557.115 547.71 531.185 527.383 525.476 504.547C523.734 497.577 506.233 457.492 501.851 454.571Z" fill="#db4e24" fill-rule="nonzero" opacity="1" stroke="none"/>
<path d="M692.671 451.845C687.977 456.538 684.06 467.408 680.858 472.744C664.409 500.159 636.435 510.249 605.439 508.182C585.914 506.88 563.363 496.875 549.102 485.465C542.573 480.242 535.977 473.612 529.111 479.105C547.701 516.285 590.583 593.263 638.151 582.693C676.877 574.087 689.276 515.9 692.671 483.648C693.566 475.148 698.853 458.027 692.671 451.845Z" fill="#db4e24" fill-rule="nonzero" opacity="1" stroke="none"/>
<path d="M913.477 540.894C914.385 540.44 914.385 540.44 915.294 539.985C931.718 556.409 956.935 559.648 971.628 538.168C974.908 533.373 967.824 487.195 968.905 476.379C972.688 438.571 989.098 406.632 1013.43 378.243C1005.24 365.958 964.158 385.838 954.367 394.599C917.719 427.389 908.933 470.888 908.933 519.086C908.933 524.143 909.427 536.844 913.477 540.894Z" fill="#f08a24" fill-rule="nonzero" opacity="1" stroke="none"/>
<path d="M809.889 425.493C796.262 439.121 781.735 461.385 760.821 461.84C749.007 462.097 737.199 462.749 725.383 462.749C718.709 462.749 715.38 457.293 709.936 454.571C704.257 460.25 706.459 479.28 705.392 487.283C702.387 509.819 696.492 532.342 686.31 552.707C694.675 561.072 716.782 553.453 727.2 549.981C763.78 537.787 789.778 502.576 803.528 468.201C807.776 457.581 818.169 433.774 809.889 425.493Z" fill="#db4e24" fill-rule="nonzero" opacity="1" stroke="none"/>
<path d="M402.806 28.4055C398.42 32.7925 398.276 39.2835 395.537 44.7615C402.057 51.2815 411.405 54.1215 418.254 60.2095C433.916 74.1305 445.021 88.2225 450.057 108.369C454.296 125.325 454.6 141.388 454.6 159.254C454.6 162.638 451.26 168.034 455.509 170.158C455.898 170.353 489.598 155.875 493.673 154.711C508.569 150.455 535.602 149.842 542.741 131.994C545.587 124.88 512.311 84.2995 509.12 81.1085C500.489 72.4765 514.01 123.676 500.034 120.182C491.781 118.119 477.94 84.1565 470.956 76.5655C449.599 53.3505 428.783 41.3945 402.806 28.4055Z" fill="#4c5124" fill-rule="nonzero" opacity="1" stroke="none"/>
<path d="M378.272 443.667C366.305 455.635 361.737 472.923 349.195 485.465C340.93 493.73 328.669 489.636 321.935 496.369C340.798 534.095 374.236 561.713 415.528 569.971C424.291 571.724 443.238 577.699 449.148 571.789C443.003 563.595 432.633 557.091 425.523 549.981C409.632 534.09 399.765 509.054 392.811 488.191C389.333 477.757 386.847 449.383 378.272 443.667Z" fill="#db4e24" fill-rule="nonzero" opacity="1" stroke="none"/>
<path d="M1564.08 349.166C1563.17 348.257 1563.17 348.257 1562.27 347.348C1566.28 339.33 1579.73 316.858 1575.9 309.184C1570.81 311.727 1557.59 325.017 1553.18 322.814C1548.12 327.877 1532.86 346.032 1536.82 354.618C1540.07 361.659 1547.04 359.784 1552.27 363.704C1559.13 368.845 1565.13 375.303 1572.26 380.06C1580.86 373.611 1599.43 373.017 1604.06 369.156C1618.45 357.17 1614.02 342.554 1624.06 329.175C1634.44 315.323 1646.31 301.467 1658.58 289.194C1660.65 287.129 1699.22 260.932 1699.47 260.116C1700.37 257.221 1699.97 254.017 1699.47 251.03C1698.7 246.363 1687.13 252.114 1684.94 252.847C1671.27 257.401 1659.17 264.493 1646.77 271.929C1614.26 291.437 1588.22 320.207 1564.08 349.166Z" fill="#4c5124" fill-rule="nonzero" opacity="1" stroke="none"/>
<path d="M508.212 82.9255C517.815 91.3295 525.299 101.108 531.837 112.004C535.373 117.896 537.148 126.401 541.832 131.086C559.348 113.57 543.94 92.3855 530.928 75.6565C508.117 46.3275 473.876 31.0575 439.153 21.1365C432.088 19.1185 417.176 12.8395 410.076 14.7755C406.724 15.6905 401.16 25.6255 401.898 29.3145C402.56 32.6255 418.21 36.3235 420.98 38.4015C437.63 50.8885 453.818 60.3355 469.139 75.6565C477.751 84.2685 489.975 119.484 500.034 121.999C512.89 125.213 506.681 87.5175 508.212 82.9255Z" fill="#a2992a" fill-rule="nonzero" opacity="1" stroke="none"/>
<path d="M873.495 398.234C872.132 397.325 872.132 397.325 870.769 396.416C861.925 405.261 858.868 464.477 863.5 469.109C873.353 464.183 879.238 450.452 884.399 441.849C899.31 416.999 923.361 393.547 946.189 376.426C955.211 369.659 960.954 372.746 969.814 370.974C981.088 368.719 991.898 365.628 1003.44 363.704C1007.16 363.084 1014.25 353.203 1012.52 349.166C1005.97 333.879 979.788 338.722 970.718 340.988C960.033 343.66 948.985 343.783 938.919 348.257C915.301 358.754 891.927 381.118 873.495 398.234Z" fill="#f08a24" fill-rule="nonzero" opacity="1" stroke="none"/>
<path d="M1320.56 135.629C1323.96 139.031 1353.24 145.066 1361.45 148.35C1384.84 157.706 1408.6 177.33 1425.97 194.692C1441.54 210.262 1460.24 231.756 1468.67 252.847C1471.41 259.677 1473.63 274.738 1479.58 279.198C1486.99 284.761 1509.28 272.214 1515.02 266.477C1510.88 262.342 1510.5 256.526 1507.75 251.938C1501.61 241.711 1492.04 230.856 1484.12 221.952C1473.41 209.898 1462.49 198.218 1450.5 187.423C1425.74 165.139 1387.04 136.003 1354.18 133.812C1343.28 133.085 1328.74 127.452 1320.56 135.629Z" fill="#db4e24" fill-rule="nonzero" opacity="1" stroke="none"/>
<path d="M825.336 316.454C818.718 314.06 824.632 332.486 825.336 339.17C827.998 364.459 829.879 390.064 829.879 415.498C829.879 436.702 824.101 472.271 810.797 490.009C808.116 493.584 794.549 511.123 796.259 514.543C799.8 521.624 828.309 497.664 830.788 495.461C834.153 492.469 837.599 489.558 840.783 486.374C843.526 483.631 847.624 481.143 848.053 477.287C849.018 468.596 847.144 455.696 847.144 447.301C847.144 427.832 850.852 408.045 858.048 390.056C862.094 379.94 876.324 367.954 874.404 356.435C873.925 353.563 859.597 350.148 857.139 349.166C844.81 344.234 837.723 320.934 825.336 316.454Z" fill="#db4e24" fill-rule="nonzero" opacity="1" stroke="none"/>
<path d="M1286.03 41.1275C1269.17 57.9855 1256.18 85.6425 1249.69 108.369C1246.71 118.775 1247.32 137.991 1239.69 145.624C1230.83 136.766 1242.29 120.056 1232.42 110.186C1221.93 115.433 1207.31 156.767 1201.53 168.341C1208.02 174.835 1220.01 175.595 1228.79 176.519C1246.49 178.383 1272.36 179.429 1273.31 154.711C1273.87 140.18 1273.69 125.627 1274.22 111.095C1274.48 103.787 1277 96.3435 1278.76 89.2865C1280.37 82.8405 1294.95 50.2725 1294.21 46.5795C1293.71 44.0995 1288.09 42.1585 1286.03 41.1275Z" fill="#4c5124" fill-rule="nonzero" opacity="1" stroke="none"/>
<path d="M1430.51 441.849C1412.92 459.442 1410.66 478.141 1404.16 500.913C1403.51 503.187 1398.83 503.094 1398.71 505.456C1397.83 522.395 1399.29 539.39 1398.71 556.341C1398.69 556.855 1396.71 562.735 1395.98 563.611C1387.06 574.311 1376.99 562.658 1367.81 567.245C1372.83 572.268 1375.69 579.206 1380.53 584.51C1400.72 606.619 1413.3 615.405 1443.23 615.405C1444.89 615.405 1447.91 614.613 1448.68 612.679C1450.03 609.299 1443.24 603.008 1441.41 599.957C1435.03 589.317 1430.48 575.736 1427.78 563.611C1419.33 525.583 1416.02 480.815 1434.14 444.575C1432.33 443.212 1432.33 443.212 1430.51 441.849Z" fill="#db4e24" fill-rule="nonzero" opacity="1" stroke="none"/>
<path d="M1276.95 487.283C1258.31 505.914 1255.03 510.908 1226.97 510.908C1220.82 510.908 1215.43 504.457 1209.7 506.365C1209.7 527.217 1207.33 548.376 1197.89 567.245C1195.98 571.074 1185.44 583.242 1186.99 586.327C1191.22 594.783 1216.59 585.754 1224.24 582.693C1251.33 571.857 1267.53 540.385 1274.22 513.634C1275.78 507.384 1281.41 491.744 1276.95 487.283Z" fill="#db4e24" fill-rule="nonzero" opacity="1" stroke="none"/>
<path d="M548.193 171.067C521.97 187.841 545.702 259.796 556.371 286.468C559.421 294.092 570.895 320.508 581.814 315.545C592.027 310.903 588.875 290.124 588.174 281.016C585.811 250.297 574.965 217.764 565.458 189.24C562.356 179.934 558.637 164.386 548.193 171.067Z" fill="#ebb940" fill-rule="nonzero" opacity="1" stroke="none"/>
<path d="M175.64 251.03C176.549 251.938 176.549 251.938 177.457 252.847C171.668 264.425 173.794 281.895 182.909 291.011C196.498 284.216 206.053 229.972 212.895 212.866C213.992 210.123 223.949 193.175 222.891 191.058C222.137 189.551 211.164 173.296 208.352 174.702C178.429 189.663 160.293 232.151 148.38 261.934C144.514 271.599 131.293 290.191 143.837 296.463C145.339 297.214 146.489 298.128 148.38 297.372C152.67 295.656 171.29 257.555 175.64 251.03Z" fill="#a2992a" fill-rule="nonzero" opacity="1" stroke="none"/>
<path d="M141.111 505.456C136.341 510.225 132.826 517.375 127.481 522.721C112.122 538.08 87.0045 515.762 75.6865 507.273C73.8685 509.091 73.8685 509.091 72.0515 510.908C88.5995 544.004 111.711 573.295 146.563 587.236C157.227 591.502 176.827 598.771 185.635 589.962C178.464 575.619 161.484 563.326 157.467 547.255C154.872 536.878 148.452 512.797 141.111 505.456Z" fill="#db4e24" fill-rule="nonzero" opacity="1" stroke="none"/>
<path d="M1778.53 493.643C1778.53 514.812 1778 535.031 1772.17 555.433C1770.02 562.943 1760.67 578.179 1763.08 585.419C1793.46 585.419 1852.27 518.801 1844.86 485.465C1843.8 480.675 1829.65 491.994 1826.69 492.735C1814.53 495.774 1796.28 494.552 1787.62 494.552C1782.69 494.552 1782.88 492.192 1778.53 493.643Z" fill="#db4e24" fill-rule="nonzero" opacity="1" stroke="none"/>
<path d="M1192.44 519.995C1177.6 534.832 1163.19 544.707 1144.28 551.798C1133.64 555.789 1119.58 551.854 1108.84 555.433C1108.84 562.172 1094.9 599.01 1095.21 599.957C1098.47 609.742 1123.76 605.314 1130.65 603.592C1159.29 596.431 1181.71 574.359 1189.71 546.346C1191.41 540.422 1196.74 524.295 1192.44 519.995Z" fill="#db4e24" fill-rule="nonzero" opacity="1" stroke="none"/>
<path d="M462.778 181.971C417.419 196.747 400.795 260.729 392.811 304.641C389.035 325.41 386.7 347.172 387.359 368.248C387.396 369.444 389.881 370.807 390.994 370.065C402.613 362.319 403.907 340.58 406.441 329.175C410.981 308.744 417.368 285.512 426.432 267.386C435.027 250.195 452.377 223.477 455.509 204.688C456.489 198.811 471.339 179.182 462.778 181.971Z" fill="#ebb940" fill-rule="nonzero" opacity="1" stroke="none"/>
<path d="M991.618 271.929C987.928 275.625 984.168 279.018 979.808 281.924C991.488 297.49 1018.6 298.974 1024.34 321.906C1026.39 330.123 1027.97 337.334 1027.97 346.44C1027.97 351.421 1022.26 359.031 1023.43 363.704C1024.13 366.533 1030.11 368.248 1032.51 368.248C1050.32 368.248 1055.03 369.934 1068.86 379.152C1077.06 372.124 1083.64 365.967 1092.49 360.07C1083.12 346.014 1078.33 332.281 1065.23 319.18C1063.47 317.422 1050.58 307.78 1048.87 314.636C1046.86 322.656 1058.56 336.754 1052.5 342.805C1043.19 333.49 1043.1 316.197 1033.42 305.55C1020.26 291.066 1004.08 284.387 991.618 271.929Z" fill="#4c5124" fill-rule="nonzero" opacity="1" stroke="none"/>
<path d="M1306.93 184.697C1299.23 192.401 1310.74 192.7 1305.11 198.327C1332.3 225.516 1345.95 275.338 1355.09 311.91C1357.9 323.142 1362.2 358.092 1368.72 364.613C1375.67 359.98 1376.35 348.69 1381.44 341.896C1383.32 339.392 1393.8 327.958 1392.35 325.54C1384.51 312.48 1382.58 296.332 1375.08 282.833C1355.54 247.654 1335.06 214.482 1306.93 184.697Z" fill="#db4e24" fill-rule="nonzero" opacity="1" stroke="none"/>
<path d="M861.683 469.109C866.16 478.065 865.085 493.285 868.043 503.639C873.979 524.412 884.403 542.17 898.938 558.159C902.167 556.006 894.395 501.843 894.395 496.369C894.395 456.11 915.453 407.201 948.006 382.786C941.452 372.956 936.617 381.967 928.924 389.147C922.19 395.432 915.447 401.715 908.933 408.229C890.951 426.212 881.756 454.054 861.683 469.109Z" fill="#db4e24" fill-rule="nonzero" opacity="1" stroke="none"/>
<path d="M1402.34 334.627C1404.72 338.198 1444.8 322.401 1453.23 321.906C1492.49 319.596 1497.02 326.082 1526.83 340.988C1533.98 333.836 1544.96 318.37 1548.64 309.184C1548.86 308.622 1548.99 307.86 1548.64 307.367C1537.75 292.12 1502.1 291.92 1486.85 291.92C1451.29 291.92 1426.75 311.376 1402.34 334.627Z" fill="#f08a24" fill-rule="nonzero" opacity="1" stroke="none"/>
<path d="M1753.99 551.798C1740.07 565.725 1703.22 583.715 1685.84 566.337C1681.26 570.919 1677.92 584.397 1674.03 590.871C1668.7 599.76 1660.02 606.541 1654.95 615.405C1649.87 624.299 1688.34 625.608 1689.48 625.4C1713.43 621.045 1738.39 597.547 1748.54 577.241C1751.81 570.7 1759.57 557.376 1753.99 551.798Z" fill="#db4e24" fill-rule="nonzero" opacity="1" stroke="none"/>
<path d="M222.891 189.24C209.217 202.914 199.391 247.802 194.722 266.477C193.42 271.684 188.718 295.002 180.183 286.468C171.786 278.07 183.393 245.153 179.275 241.034C166.222 254.087 155.976 279.454 147.471 296.463C161.966 310.957 213.689 313.278 220.165 287.376C224.326 270.729 216.968 253.651 219.256 236.491C220.694 225.708 231.977 206.507 231.977 198.327C231.977 194.043 226.143 192.028 222.891 189.24Z" fill="#4c5124" fill-rule="nonzero" opacity="1" stroke="none"/>
<path d="M1445.96 568.154C1436.42 574.63 1464.39 607.482 1469.58 612.679C1499.49 642.585 1548.99 621.62 1561.36 584.51C1564.07 576.385 1525.05 588.655 1520.47 589.053C1500.81 590.762 1483.48 584.502 1466.86 579.967C1461.66 578.549 1457.39 572.228 1452.32 569.971C1450.3 569.076 1447.78 566.915 1445.96 568.154Z" fill="#db4e24" fill-rule="nonzero" opacity="1" stroke="none"/>
<path d="M256.511 233.765C235.283 236.124 228.679 241.575 231.977 264.66C232.596 268.989 232.431 276.29 237.429 278.29C242.286 280.232 250.126 278.89 255.603 280.107C269.339 283.159 281.266 289.304 293.766 295.554C295.88 293.44 310.567 254.793 310.122 253.756C304.533 240.714 274.957 236.071 256.511 233.765Z" fill="#f08a24" fill-rule="nonzero" opacity="1" stroke="none"/>
<path d="M258.328 519.086C251.256 526.159 247.392 536.101 239.247 543.62C237.403 545.322 227.628 545.945 226.525 546.346C210.872 552.038 190.949 551.729 174.731 543.62C173.823 544.529 173.823 544.529 172.914 545.437C184.365 568.339 202.565 597.231 231.069 597.231C251.93 597.231 258.423 558.777 259.237 544.529C259.721 536.056 264.329 525.087 258.328 519.086Z" fill="#db4e24" fill-rule="nonzero" opacity="1" stroke="none"/>
<path d="M1666.76 565.428C1642.33 577.645 1625.37 592.375 1594.07 585.419C1588.86 584.262 1580.18 582.431 1576.8 579.058C1570 585.864 1562.02 604.001 1556.81 612.679C1556.47 613.259 1555.77 613.832 1555.91 614.496C1557.11 620.517 1574.05 623.217 1578.62 623.583C1584.37 624.042 1590.12 624.491 1595.89 624.491C1619.29 624.491 1639.44 609.11 1654.95 593.597C1660.81 587.738 1670.8 573.498 1666.76 565.428Z" fill="#db4e24" fill-rule="nonzero" opacity="1" stroke="none"/>
<path d="M1202.43 169.25C1213.34 158.349 1217.15 137.088 1224.24 122.908C1225.01 121.376 1233.51 107.435 1234.24 114.73C1235.25 124.894 1230.56 141.946 1238.78 150.168C1247.32 144.474 1246.12 124.919 1248.78 115.638C1256.78 87.6085 1273.37 68.2775 1286.03 42.9445C1282.15 39.0675 1269.51 36.1705 1264.22 37.4925C1257.54 39.1625 1246.79 60.7925 1243.32 66.5695C1228.46 91.3455 1214.02 114.398 1203.34 141.081C1199.57 150.507 1194.23 161.045 1202.43 169.25Z" fill="#a2992a" fill-rule="nonzero" opacity="1" stroke="none"/>
<path d="M1574.08 301.006C1576.08 305.001 1573.56 308.664 1576.8 311.91C1573.57 318.371 1557.23 352.307 1560.45 355.526C1573.45 342.521 1585.07 328.034 1597.7 314.636C1620.76 290.187 1644.24 273.651 1673.12 259.208C1678.01 256.767 1697.64 254.715 1699.47 249.212C1705.49 231.177 1671.89 243.262 1664.95 245.578C1631.68 256.667 1599.94 277.731 1574.08 301.006Z" fill="#a2992a" fill-rule="nonzero" opacity="1" stroke="none"/>
<path d="M1023.43 256.482C1025.6 258.658 1051.49 274.676 1051.6 274.655C1056.92 273.589 1056.63 261.362 1057.96 257.39C1063.54 240.626 1070.37 226.382 1080.67 211.957C1093.17 194.455 1108.18 178.473 1126.11 166.524C1135.53 160.242 1151.31 158.581 1158.82 151.076C1145.43 137.692 1124.06 158.258 1112.48 162.889C1085.49 173.685 1059.84 203.385 1042.51 226.496C1035.58 235.73 1031.02 248.893 1023.43 256.482Z" fill="#db4e24" fill-rule="nonzero" opacity="1" stroke="none"/>
<path d="M1201.53 57.4835C1172.5 60.1215 1147.72 70.9835 1126.11 90.1955C1132.31 99.4975 1148.69 92.7045 1158.82 93.8295C1175.32 95.6635 1185.45 103.574 1199.71 109.278C1200.27 109.503 1200.98 109.549 1201.53 109.278C1206.56 106.762 1225.38 72.4645 1228.79 65.6615C1229.09 65.0555 1229.91 64.4865 1229.69 63.8435C1227.49 57.2415 1211.62 58.7785 1201.53 57.4835Z" fill="#ebb940" fill-rule="nonzero" opacity="1" stroke="none"/>
<path d="M970.718 537.259C954.485 543.581 955.572 551.798 938.011 551.798C932.621 551.798 915.365 535.323 912.568 539.985C910.217 543.904 916.438 556.022 918.02 559.976C926.445 581.039 943.341 595.993 965.271 600.866C971.488 602.248 988.048 608.852 990.718 600.866C991.038 599.896 978.948 569.717 977.988 565.428C976.288 557.75 977.858 534.481 970.718 537.259Z" fill="#db4e24" fill-rule="nonzero" opacity="1" stroke="none"/>
<path d="M1539.55 371.882C1517.79 382.905 1512.6 412.953 1510.47 436.397C1509.32 449.074 1512.34 467.882 1530.46 461.84C1560.67 451.77 1552.07 413.801 1546.82 392.782C1544.73 384.443 1549.08 367.056 1539.55 371.882Z" fill="#ebb940" fill-rule="nonzero" opacity="1" stroke="none"/>
<path d="M995.258 562.702C993.898 564.065 993.898 564.065 992.528 565.428C1007.08 594.524 1012.66 615.405 1051.6 615.405C1066.67 615.405 1101.97 576.732 1091.58 566.337C1085.09 569.578 1080.28 577.02 1073.4 579.967C1063.58 584.178 1044.34 583.601 1037.06 583.601C1021.3 583.601 1008.17 569.158 995.258 562.702Z" fill="#db4e24" fill-rule="nonzero" opacity="1" stroke="none"/>
<path d="M1206.07 211.048C1183.13 233.992 1176.08 272.674 1176.08 303.732C1176.08 305.016 1206.86 332.427 1208.8 333.718C1215.01 327.504 1206.54 305.642 1205.16 297.372C1202.07 278.838 1203.34 259.823 1203.34 241.034C1203.34 231.987 1214.35 217.26 1206.07 211.048Z" fill="#db4e24" fill-rule="nonzero" opacity="1" stroke="none"/>
<path d="M991.618 273.746C1002.89 285.013 1019.47 292.509 1031.61 304.641C1042.86 315.891 1043.2 333.12 1052.5 345.531C1063.05 337.62 1049.29 326.217 1050.69 316.454C1051.65 309.726 1063.34 320.169 1064.32 320.997C1078.67 333.143 1080.42 348.91 1090.67 359.161C1106.1 347.591 1082.32 326.066 1074.31 316.454C1065.71 306.127 1027.89 264.66 1006.16 264.66C1001.41 264.66 994.848 271.164 991.618 273.746Z" fill="#a2992a" fill-rule="nonzero" opacity="1" stroke="none"/>
<path d="M1295.12 102.917C1299.86 107.657 1310.99 102.856 1316.93 102.008C1336.58 99.2005 1357.28 97.8295 1376.9 101.1C1407.51 106.201 1432.08 120.942 1459.59 137.446C1469.3 143.275 1477.76 152.44 1487.76 157.437C1489.12 156.074 1489.12 156.074 1490.48 154.711C1456.36 103.526 1400.09 89.2865 1342.37 89.2865C1329.84 89.2865 1304.78 93.2565 1295.12 102.917Z" fill="#ebb940" fill-rule="nonzero" opacity="1" stroke="none"/>
<path d="M184.727 340.988C170.571 345.01 167.462 402.237 167.462 413.681C167.462 417.837 172.52 443.409 181.092 439.123C193.218 433.061 195.631 372.118 195.631 363.704C195.631 356.505 194.343 338.255 184.727 340.988Z" fill="#ebb940" fill-rule="nonzero" opacity="1" stroke="none"/>
<path d="M1605.88 402.777C1591.91 407.673 1602.27 432.968 1604.06 446.393C1605.21 454.958 1606.51 463.429 1608.61 471.835C1610.22 478.296 1614.81 505.62 1625.87 494.552C1626.83 493.594 1627.36 492.232 1627.69 490.917C1629.6 483.269 1631.32 474.3 1631.32 466.383C1631.32 453.586 1624.21 396.357 1605.88 402.777Z" fill="#ebb940" fill-rule="nonzero" opacity="1" stroke="none"/>
<path d="M1329.65 463.657C1326.14 467.168 1302.52 491.958 1294.21 483.648C1290.97 486.889 1292.62 492.7 1292.39 497.278C1292.05 504.096 1287.92 512.364 1288.76 519.086C1289.63 526.057 1302.63 521.812 1309.66 521.812C1325.49 521.812 1333.57 513.535 1333.28 499.095C1333.06 488.189 1333.49 477.235 1332.37 466.383C1332.24 465.105 1330.56 464.566 1329.65 463.657Z" fill="#db4e24" fill-rule="nonzero" opacity="1" stroke="none"/>
<path d="M939.828 336.444C931.161 332.11 907.562 350.12 901.664 355.526C895.82 360.883 890.005 366.277 884.399 371.882C882.258 374.024 880.708 376.687 878.947 379.152C874.965 384.727 866.667 395.04 872.587 400.96C889.072 384.474 915.156 357.995 938.919 350.074C949.073 346.69 983.448 341.896 987.988 337.353C980.788 330.154 946.747 329.526 939.828 336.444Z" fill="#ebb940" fill-rule="nonzero" opacity="1" stroke="none"/>
<path d="M1093.39 320.088C1096.82 326.93 1101.47 334.788 1106.12 340.988C1120.32 333.887 1132.76 326.483 1149.73 325.54C1159.15 325.017 1171.23 329.485 1177.9 322.814C1157.26 298.042 1116.63 300.724 1093.39 320.088Z" fill="#ebb940" fill-rule="nonzero" opacity="1" stroke="none"/>
<path d="M61.1475 414.589C69.2225 406.514 74.3575 394.391 80.2295 384.604C93.4725 362.532 111.224 338.727 131.115 322.814C116.012 307.711 105.755 327.276 92.0425 340.988C79.4835 353.546 72.9305 370.594 66.5995 386.421C64.2263 392.354 56.7531 410.195 61.1475 414.589Z" fill="#ebb940" fill-rule="nonzero" opacity="1" stroke="none"/>
<path d="M970.718 307.367C947.336 309.706 927.65 315.728 909.842 330.992C913.523 334.673 939.296 323.054 946.189 321.906C960.162 319.577 973.478 319.415 987.078 322.814C991.968 324.037 1006.05 332.831 1010.71 331.901C1017.1 330.622 1004.52 315.718 1003.44 314.636C997.768 308.97 983.088 308.904 970.718 307.367Z" fill="#c89e41" fill-rule="nonzero" opacity="1" stroke="none"/>
<path d="M1520.47 280.107C1525.75 285.388 1536.96 285.625 1544.09 289.194C1547.41 290.854 1555.66 299.766 1558.63 298.28C1569.85 292.669 1578.96 279.885 1589.53 272.838C1584.52 265.325 1531.69 268.887 1520.47 280.107Z" fill="#f08a24" fill-rule="nonzero" opacity="1" stroke="none"/>
<path d="M1294.21 90.1955C1301.12 90.1955 1354.31 77.3465 1355.09 76.5655C1345.02 66.4955 1314.27 62.2455 1301.48 63.8435C1296.29 64.4935 1293.18 87.1185 1294.21 90.1955Z" fill="#ebb940" fill-rule="nonzero" opacity="1" stroke="none"/>
<path d="M1173.36 141.081C1162.09 142.691 1149.63 141.18 1141.55 149.259C1148.12 155.824 1213.06 150.553 1173.36 141.081Z" fill="#ac4021" fill-rule="nonzero" opacity="1" stroke="none"/>
<path d="M697.214 133.812C691.027 139.998 680.952 132.809 674.498 139.264C678.657 143.423 688.701 140.794 694.488 142.898C701.755 145.541 709.604 149.093 717.205 152.894C718.113 151.985 718.113 151.985 719.022 151.076C712.489 144.543 705.542 137.976 697.214 133.812Z" fill="#ebb940" fill-rule="nonzero" opacity="1" stroke="none"/>
<path d="M1574.08 300.098C1566.66 307.52 1558.99 314.75 1552.27 322.814C1553.18 324.177 1553.18 324.177 1554.09 325.54C1561.69 319.456 1584.97 310.992 1574.08 300.098Z" fill="#898429" fill-rule="nonzero" opacity="1" stroke="none"/>
<path d="M1075.22 296.463C1078.46 301.324 1082.62 305.418 1086.13 310.093C1090.44 307.936 1094.19 304.916 1097.94 301.915C1093.6 297.577 1079.77 291.91 1075.22 296.463Z" fill="#c89e41" fill-rule="nonzero" opacity="1" stroke="none"/>
<path d="M943.463 377.334C947.702 385.812 963.013 375.957 968.905 370.065C961.036 362.196 949.884 372.518 943.463 377.334Z" fill="#ac4021" fill-rule="nonzero" opacity="1" stroke="none"/>
<path d="M1297.84 145.624C1295.68 144.263 1278.61 154.798 1287.85 157.437C1293.1 158.937 1309.05 152.67 1297.84 145.624Z" fill="#ebb940" fill-rule="nonzero" opacity="1" stroke="none"/>
<path d="M1564.08 639.03C1572.72 639.484 1572.72 639.484 1581.35 639.939C1580.89 638.576 1580.89 638.576 1580.44 637.213C1573.14 637.213 1569.23 633.885 1564.08 639.03Z" fill="#000000" fill-rule="nonzero" opacity="1" stroke="none"/>
</g>
</g>
</svg>
