<?xml version="1.0" encoding="UTF-8" standalone="no"?>
<!DOCTYPE svg PUBLIC "-//W3C//DTD SVG 1.1//EN" "http://www.w3.org/Graphics/SVG/1.1/DTD/svg11.dtd">
<!-- Created with Vectornator (http://vectornator.io/) -->
<svg height="100%" stroke-miterlimit="10" style="fill-rule:nonzero;clip-rule:evenodd;stroke-linecap:round;stroke-linejoin:round;" version="1.1" viewBox="0 0 70.875 19.7266" width="100%" xml:space="preserve" xmlns="http://www.w3.org/2000/svg" xmlns:vectornator="http://vectornator.io" xmlns:xlink="http://www.w3.org/1999/xlink">
<defs/>
<g id="Layer-1" vectornator:layerName="Layer 1">
<path d="M9.4375 0.86141C3.99186 1.20471 1.80781 1.73613 0.625 2.73641C0.435232 2.89689 0.402018 3.17164 0.5625 3.36141C0.722982 3.55118 0.997732 3.58439 1.1875 3.42391C2.17552 2.58836 4.23875 2.09934 9.5 1.76766C9.74804 1.75202 9.95314 1.54695 9.9375 1.29891C9.92186 1.05087 9.68553 0.845772 9.4375 0.86141Z" fill="#e9e7d2" fill-rule="nonzero" opacity="1" stroke="none" vectornator:layerName="Curve 1"/>
<path d="M5.75 1.20516C5.50149 1.20828 5.30938 1.4254 5.3125 1.67391C5.32232 2.45591 5.20451 3.59317 5.03125 5.01766C4.96894 5.52994 4.92289 6.05691 4.84375 6.61141C4.74049 7.33486 4.40432 9.44539 4.375 9.61141C4.33177 9.85615 4.47401 10.0994 4.71875 10.1427C4.96349 10.1859 5.20678 10.0124 5.25 9.76766C5.27995 9.59809 5.61456 7.49765 5.71875 6.76766C5.79873 6.20729 5.8744 5.66147 5.9375 5.14266C6.11524 3.68129 6.19795 2.47456 6.1875 1.64266C6.18438 1.39415 5.99851 1.20204 5.75 1.20516Z" fill="#e9e7d2" fill-rule="nonzero" opacity="1" stroke="none" vectornator:layerName="Curve 6"/>
<path d="M9.6875 6.92391C9.19671 7.17561 9.04094 7.8492 9.34375 8.36141C9.44556 8.53362 9.66587 8.62301 9.84375 8.73641C9.47307 9.28685 8.88573 9.76487 8.46875 9.58016C7.8592 9.31016 7.92437 8.45381 8.28125 8.14266C8.46858 7.97933 8.47582 7.70499 8.3125 7.51766C8.14918 7.33033 7.87483 7.29183 7.6875 7.45516C6.89889 8.14273 6.76496 9.83531 8.09375 10.4239C9.04489 10.8452 10.3506 10.044 10.875 9.01766C11.051 9.02818 11.1753 9.09677 11.375 9.08016C11.8522 9.04047 12.2154 8.97616 12.5938 8.89266C12.7104 8.86692 13.2697 8.74442 13.3125 8.73641C13.5568 8.6907 13.702 8.44944 13.6563 8.20516C13.6105 7.96087 13.3693 7.78444 13.125 7.83016C13.0726 7.83996 12.5112 7.99449 12.4063 8.01766C12.0663 8.09268 11.7485 8.13764 11.3125 8.17391C11.1679 8.18594 11.18 8.11549 11.0625 8.11141C11.0625 8.06904 11.0972 8.02859 11.0938 7.98641C11.0146 7.02269 10.3661 6.57588 9.6875 6.92391ZM10.0938 7.73641C10.1257 7.72001 10.142 7.84926 10.1563 7.89266C10.153 7.88777 10.1279 7.89763 10.125 7.89266C10.0749 7.80789 10.086 7.7404 10.0938 7.73641Z" fill="#e9e7d2" fill-rule="nonzero" opacity="1" stroke="none" vectornator:layerName="Curve 4"/>
<path d="M13.5938 7.64266C13.382 7.51253 13.0989 7.55593 12.9688 7.76766C12.799 8.04393 12.6846 8.45518 12.7188 8.79891C12.7689 9.30369 13.1118 9.68229 13.6563 9.70516C14.2246 9.72904 14.6284 9.55695 15.25 9.14266C15.3045 9.10628 15.2904 9.11594 15.3438 9.08016C15.9216 8.6932 16.1989 8.55206 16.625 8.58016C16.8546 8.5953 16.9693 8.69491 17.125 8.98641C17.142 9.01828 17.1474 9.06546 17.1875 9.14266C17.391 9.53112 17.575 9.73119 17.9062 9.83016C18.3364 9.95869 18.8832 9.82827 19.625 9.51766C19.8333 9.43045 20.058 9.31613 20.2812 9.20516C20.5596 9.06682 20.8352 8.91544 21.0938 8.76766C21.2493 8.67871 21.3713 8.62106 21.4375 8.58016C21.6489 8.44948 21.7244 8.16656 21.5938 7.95516C21.4631 7.74376 21.1801 7.66823 20.9688 7.79891C20.9109 7.83466 20.8023 7.9029 20.6562 7.98641C20.412 8.12606 20.1365 8.26273 19.875 8.39266C19.6681 8.49545 19.4704 8.5947 19.2812 8.67391C18.7285 8.90536 18.3166 9.00306 18.1562 8.95516C18.1352 8.94888 18.0961 8.88859 18 8.70516C17.9623 8.63252 17.9261 8.61732 17.9062 8.58016C17.6192 8.04268 17.29 7.7449 16.6875 7.70516C16.0081 7.66035 15.5745 7.8408 14.8438 8.33016C14.79 8.36618 14.8025 8.3576 14.75 8.39266C14.275 8.70926 14.0139 8.81263 13.6875 8.79891C13.6291 8.79646 13.6338 8.79423 13.625 8.70516C13.6107 8.56113 13.6501 8.37942 13.7188 8.26766C13.8489 8.05592 13.8055 7.77279 13.5938 7.64266Z" fill="#e9e7d2" fill-rule="nonzero" opacity="1" stroke="none" vectornator:layerName="Curve 7"/>
<path d="M22.5312 6.36141C21.2169 6.3268 20.1675 7.76949 20.9688 8.89266C21.3621 9.44409 21.9672 9.47963 22.5 9.29891C22.5112 9.4282 22.5174 9.54358 22.5312 9.70516C22.3502 9.79813 22.1462 9.86014 21.9688 9.95516C20.6196 10.6777 19.4642 11.4116 18.5938 12.1427C16.491 13.9086 15.8729 15.2938 16.0938 16.8302C16.3121 18.3493 18.0791 19.479 20.0938 19.0802C22.0744 18.688 23.1749 17.3568 23.625 15.5489C23.8726 14.5543 23.8436 13.7444 23.6562 12.1114C23.5929 11.5589 23.5831 11.3821 23.5625 11.1114C23.5438 10.8655 23.5314 10.612 23.5 10.2364C24.257 9.86334 24.9997 9.47348 25.7812 9.14266C26.1864 8.97116 27.2374 8.57647 27.3125 8.54891C27.5458 8.46325 27.6794 8.18846 27.5938 7.95516C27.5081 7.72186 27.2333 7.61951 27 7.70516C26.9192 7.73483 25.8506 8.15532 25.4375 8.33016C24.748 8.62202 24.0806 8.94245 23.4062 9.26766C23.384 9.01068 23.3472 8.52158 23.3438 8.48641C23.2937 7.97782 22.5498 7.92535 22.4375 8.42391C22.3973 8.60242 21.9077 8.6701 21.6875 8.36141C21.3657 7.91027 21.8616 7.2196 22.5 7.23641C22.7484 7.24295 22.9622 7.04735 22.9688 6.79891C22.9753 6.55047 22.7797 6.36795 22.5312 6.36141ZM22.625 10.6739C22.6409 10.8692 22.6456 11.0342 22.6562 11.1739C22.6781 11.4603 22.6852 11.6717 22.75 12.2364C22.9254 13.7654 22.9633 14.4733 22.75 15.3302C22.376 16.8326 21.5226 17.8913 19.9375 18.2052C18.4105 18.5075 17.1108 17.6935 16.9688 16.7052C16.7961 15.5044 17.307 14.4095 19.1875 12.8302C20.0033 12.145 21.1073 11.4633 22.4062 10.7677C22.4747 10.731 22.556 10.7103 22.625 10.6739Z" fill="#e9e7d2" fill-rule="nonzero" opacity="1" stroke="none" vectornator:layerName="Curve 5"/>
<path d="M25.1875 4.33016C24.939 4.32929 24.7196 4.51913 24.7188 4.76766C24.7179 5.01619 24.939 5.23553 25.1875 5.23641L27.9375 5.23641C28.186 5.23728 28.4054 5.04744 28.4062 4.79891C28.4071 4.55038 28.186 4.33104 27.9375 4.33016L25.1875 4.33016Z" fill="#e9e7d2" fill-rule="nonzero" opacity="1" stroke="none" vectornator:layerName="Curve 14"/>
<path d="M28.0312 3.20516C27.7944 3.12978 27.5441 3.28084 27.4688 3.51766C27.4409 3.60524 27.4049 3.74207 27.3438 3.95516C27.2422 4.30909 27.1261 4.68479 27.0312 5.08016C26.9128 5.57381 26.8245 6.06252 26.75 6.51766C26.5443 7.77422 26.524 8.73137 26.8125 9.33016C27.1724 10.077 27.9218 10.1652 28.6875 9.76766C29.2552 9.47289 29.8445 8.929 30.1875 8.36141C30.316 8.1487 30.244 7.86494 30.0312 7.73641C29.8185 7.60788 29.5348 7.67995 29.4062 7.89266C29.1465 8.3225 28.6975 8.77029 28.2812 8.98641C27.9139 9.17717 27.7245 9.16157 27.625 8.95516C27.4438 8.57902 27.4484 7.75267 27.625 6.67391C27.6957 6.24224 27.7926 5.77252 27.9062 5.29891C27.9978 4.91724 28.0894 4.54703 28.1875 4.20516C28.2462 4.00076 28.3184 3.8474 28.3438 3.76766C28.4191 3.53084 28.2681 3.28054 28.0312 3.20516Z" fill="#e9e7d2" fill-rule="nonzero" opacity="1" stroke="none" vectornator:layerName="Curve 9"/>
<path d="M31.7188 6.92391C31.228 7.17561 31.0722 7.8492 31.375 8.36141C31.4768 8.53362 31.6971 8.62301 31.875 8.73641C31.5095 9.29813 30.9232 9.79887 30.5 9.61141C29.8905 9.34141 29.9556 8.45381 30.3125 8.14266C30.4998 7.97933 30.5071 7.70499 30.3438 7.51766C30.1804 7.33033 29.9061 7.32308 29.7188 7.48641C28.9301 8.17398 28.7962 9.83531 30.125 10.4239C31.0761 10.8452 32.3819 10.044 32.9062 9.01766C33.0823 9.02818 33.2065 9.09677 33.4062 9.08016C33.8835 9.04047 34.2779 8.97616 34.6562 8.89266C34.7729 8.86692 35.3009 8.74442 35.3438 8.73641C35.588 8.6907 35.7332 8.44945 35.6875 8.20516C35.6418 7.96087 35.4318 7.81569 35.1875 7.86141C35.1351 7.87121 34.5425 7.99449 34.4375 8.01766C34.0976 8.09268 33.7798 8.13764 33.3438 8.17391C33.1991 8.18594 33.2113 8.11549 33.0938 8.11141C33.0937 8.06904 33.1285 8.02859 33.125 7.98641C33.0458 7.02269 32.3974 6.57588 31.7188 6.92391ZM32.125 7.73641C32.1544 7.72132 32.1738 7.85988 32.1875 7.89266C32.1842 7.88777 32.1592 7.89763 32.1562 7.89266C32.1061 7.80789 32.1172 7.7404 32.125 7.73641Z" fill="#e9e7d2" fill-rule="nonzero" opacity="1" stroke="none" vectornator:layerName="Curve 3"/>
<path d="M35.625 7.64266C35.4133 7.51253 35.1301 7.58718 35 7.79891C34.8302 8.07518 34.7471 8.45518 34.7812 8.79891C34.8314 9.30369 35.1431 9.68229 35.6875 9.70516C36.2558 9.72904 36.6597 9.55695 37.2812 9.14266C37.3357 9.10628 37.3216 9.11594 37.375 9.08016C37.9528 8.6932 38.2302 8.58331 38.6562 8.61141C38.8858 8.62655 39.0006 8.69491 39.1562 8.98641C39.1733 9.01828 39.1786 9.06546 39.2188 9.14266C39.4223 9.53112 39.6063 9.73119 39.9375 9.83016C40.3677 9.95869 40.9457 9.82827 41.6875 9.51766C41.8958 9.43045 42.0892 9.31613 42.3125 9.20516C42.5909 9.06682 42.8665 8.94669 43.125 8.79891C43.2806 8.70996 43.4026 8.62106 43.4688 8.58016C43.6801 8.44948 43.7557 8.16656 43.625 7.95516C43.4943 7.74376 43.2114 7.69948 43 7.83016C42.9422 7.86591 42.8336 7.93415 42.6875 8.01766C42.4432 8.15731 42.1677 8.29398 41.9062 8.42391C41.6994 8.5267 41.5017 8.5947 41.3125 8.67391C40.7598 8.90536 40.3478 9.00306 40.1875 8.95516C40.1665 8.94888 40.1274 8.91984 40.0312 8.73641C39.9935 8.66377 39.9573 8.61732 39.9375 8.58016C39.6504 8.04268 39.3213 7.7449 38.7188 7.70516C38.0394 7.66035 37.6057 7.8408 36.875 8.33016C36.8213 8.36618 36.8337 8.3576 36.7812 8.39266C36.3063 8.70926 36.0451 8.81263 35.7188 8.79891C35.6604 8.79646 35.6651 8.82548 35.6562 8.73641C35.6419 8.59238 35.7126 8.37942 35.7812 8.26766C35.9114 8.05592 35.8367 7.77279 35.625 7.64266Z" fill="#e9e7d2" fill-rule="nonzero" opacity="1" stroke="none" vectornator:layerName="Curve 15"/>
<path d="M44.5625 6.36141C43.2481 6.3268 42.1987 7.76949 43 8.89266C43.3924 9.44274 43.999 9.50889 44.5312 9.33016C44.5409 9.44179 44.5509 9.53783 44.5625 9.67391C44.2533 9.835 43.9244 9.9744 43.625 10.1427C42.4565 10.7994 41.435 11.4937 40.625 12.1739C38.5223 13.9399 37.9041 15.2938 38.125 16.8302C38.3434 18.3493 40.1104 19.5103 42.125 19.1114C44.1057 18.7193 45.2062 17.3568 45.6562 15.5489C45.9039 14.5543 45.8749 13.7757 45.6875 12.1427C45.6241 11.5901 45.6144 11.3821 45.5938 11.1114C45.5744 10.8568 45.5639 10.5951 45.5312 10.2052C46.1473 9.89777 46.7454 9.57381 47.375 9.29891C47.7709 9.12605 48.802 8.70122 48.875 8.67391C49.1078 8.58687 49.2433 8.3442 49.1562 8.11141C49.0692 7.87862 48.7953 7.74312 48.5625 7.83016C48.4831 7.85986 47.4358 8.30975 47.0312 8.48641C46.4893 8.72303 45.9718 9.00686 45.4375 9.26766C45.4153 9.01068 45.3785 8.52158 45.375 8.48641C45.325 7.97782 44.581 7.92535 44.4688 8.42391C44.4286 8.60242 43.939 8.70135 43.7188 8.39266C43.3969 7.94152 43.9241 7.25086 44.5625 7.26766C44.8109 7.2742 44.9935 7.0786 45 6.83016C45.0065 6.58172 44.8109 6.36795 44.5625 6.36141ZM44.6562 10.6427C44.6737 10.8555 44.6761 11.0237 44.6875 11.1739C44.7093 11.4603 44.7165 11.6717 44.7812 12.2364C44.9567 13.7654 44.9946 14.4733 44.7812 15.3302C44.4072 16.8326 43.5539 17.8913 41.9688 18.2052C40.4417 18.5075 39.1421 17.6935 39 16.7052C38.8274 15.5044 39.3382 14.4408 41.2188 12.8614C41.9806 12.2216 42.939 11.5554 44.0625 10.9239C44.25 10.8185 44.4643 10.7453 44.6562 10.6427Z" fill="#e9e7d2" fill-rule="nonzero" opacity="1" stroke="none" vectornator:layerName="Curve 11"/>
<path d="M51.8438 6.42391C51.7751 6.46183 51.7181 6.52661 51.6562 6.58016C51.5818 6.6446 51.5398 6.6886 51.5 6.73641C51.3409 6.92737 51.3716 7.23359 51.5625 7.39266C51.7535 7.55173 52.0284 7.52112 52.1875 7.33016C52.1986 7.31678 52.2184 7.29501 52.25 7.26766C52.2682 7.25195 52.2736 7.24062 52.2812 7.23641C52.4988 7.11617 52.589 6.82892 52.4688 6.61141C52.3485 6.3939 52.0613 6.30367 51.8438 6.42391Z" fill="#e9e7d2" fill-rule="nonzero" opacity="1" stroke="none" vectornator:layerName="Curve 12"/>
<path d="M51.5 7.89266C51.2922 7.75639 51.0113 7.80982 50.875 8.01766C50.8397 8.07145 50.7931 8.13237 50.75 8.23641C50.6365 8.5106 50.6093 8.81727 50.6875 9.11141C50.7787 9.45448 51.0172 9.74275 51.4062 9.92391C52.4983 10.4324 54.8086 9.33923 55.625 8.51766C55.8002 8.34137 55.8013 8.06784 55.625 7.89266C55.4487 7.71748 55.1439 7.71637 54.9688 7.89266C54.8132 8.04919 54.1617 8.45732 53.5625 8.73641C52.7749 9.10324 52.1096 9.23307 51.7812 9.08016C51.626 9.00786 51.5825 8.93677 51.5625 8.86141C51.5432 8.78868 51.549 8.68835 51.5938 8.58016C51.6132 8.5332 51.6186 8.52741 51.625 8.51766C51.7613 8.30982 51.7078 8.02893 51.5 7.89266Z" fill="#e9e7d2" fill-rule="nonzero" opacity="1" stroke="none" vectornator:layerName="Curve 2"/>
<path d="M55.625 7.64266C55.4133 7.51253 55.1301 7.58717 55 7.79891C54.8302 8.07518 54.7471 8.45518 54.7812 8.79891C54.8314 9.30369 55.1431 9.68228 55.6875 9.70516C56.2558 9.72904 56.6597 9.55695 57.2812 9.14266C57.3357 9.10628 57.3216 9.11594 57.375 9.08016C57.9528 8.6932 58.2614 8.58331 58.6875 8.61141C58.9171 8.62655 59.0005 8.69491 59.1562 8.98641C59.1733 9.01828 59.2099 9.06546 59.25 9.14266C59.4535 9.53112 59.6063 9.73119 59.9375 9.83016C60.3677 9.95869 60.9457 9.82827 61.6875 9.51766C61.8958 9.43045 62.1205 9.31613 62.3438 9.20516C62.6221 9.06682 62.8665 8.91544 63.125 8.76766C63.2806 8.67871 63.4026 8.62106 63.4688 8.58016C63.6801 8.44948 63.7557 8.16656 63.625 7.95516C63.4943 7.74376 63.2114 7.66823 63 7.79891C62.9422 7.83466 62.8336 7.9029 62.6875 7.98641C62.4432 8.12606 62.199 8.26273 61.9375 8.39266C61.7306 8.49545 61.5329 8.5947 61.3438 8.67391C60.791 8.90536 60.3478 9.00306 60.1875 8.95516C60.1665 8.94888 60.1274 8.91984 60.0312 8.73641C59.9935 8.66377 59.9886 8.61732 59.9688 8.58016C59.6817 8.04268 59.3213 7.7449 58.7188 7.70516C58.0394 7.66035 57.6057 7.8408 56.875 8.33016C56.8213 8.36618 56.8337 8.35761 56.7812 8.39266C56.3063 8.70926 56.0451 8.81262 55.7188 8.79891C55.6604 8.79646 55.6651 8.79423 55.6562 8.70516C55.6419 8.56113 55.7126 8.37942 55.7812 8.26766C55.9114 8.05592 55.8367 7.77279 55.625 7.64266Z" fill="#e9e7d2" fill-rule="nonzero" opacity="1" stroke="none" vectornator:layerName="Curve 10"/>
<path d="M64.7188 7.08016C64.3673 6.80903 63.8795 6.85544 63.4688 7.20516C62.9797 7.62156 62.701 8.35838 62.75 9.01766C62.81 9.82512 63.3631 10.3554 64.25 10.3302C65.0493 10.3075 65.7 10.066 66.875 9.45516C68.0536 8.8424 68.4205 8.68298 68.9062 8.67391C69.1547 8.66927 69.3484 8.48489 69.3438 8.23641C69.3391 7.98792 69.1547 7.76302 68.9062 7.76766C68.2205 7.78047 67.7623 7.98516 66.4375 8.67391C65.3807 9.22332 64.8373 9.43758 64.2188 9.45516C63.8341 9.46609 63.6508 9.30187 63.625 8.95516C63.5968 8.57627 63.7971 8.11865 64.0625 7.89266C64.1623 7.80765 64.1568 7.79937 64.1562 7.79891C64.0954 7.75193 64.0723 7.59936 64.2812 7.45516C64.0767 7.59631 64.0151 7.8756 64.1562 8.08016C64.2974 8.28472 64.5767 8.31505 64.7812 8.17391C65.1957 7.88796 65.0718 7.35257 64.7188 7.08016Z" fill="#e9e7d2" fill-rule="nonzero" opacity="1" stroke="none" vectornator:layerName="Curve 13"/>
<path d="M50.0938 7.73641C49.9741 7.74293 49.9514 7.87451 49.875 7.95516C49.9765 7.86516 50.1346 7.80894 50.3125 7.95516C50.169 7.83719 49.9988 7.90592 49.8438 7.98641C49.8376 7.99375 49.8494 8.00983 49.8438 8.01766C49.7926 8.04473 49.7266 7.97014 49.6875 8.01766C49.6481 8.06554 49.7041 8.11801 49.6875 8.17391C49.6865 8.19061 49.6553 8.18807 49.6562 8.20516C49.6571 8.22163 49.6849 8.22049 49.6875 8.23641C49.6674 8.38575 49.5938 8.53994 49.7188 8.64266C49.856 8.75546 49.9871 8.63755 50.125 8.61141C50.0016 8.60644 49.8558 8.56022 49.7812 8.36141C49.7759 8.34727 49.7852 8.34368 49.7812 8.33016C49.8531 8.46854 49.9629 8.60281 50.125 8.61141C50.2524 8.58727 50.4111 8.67338 50.5 8.58016C50.6257 8.44832 50.7067 8.26672 50.625 8.04891C50.53 7.79565 50.3103 7.72461 50.0938 7.73641ZM49.8438 7.98641C49.8534 7.9738 49.8641 7.96668 49.875 7.95516C49.8677 7.96159 49.8503 7.94824 49.8438 7.95516C49.8372 7.96202 49.8499 7.97907 49.8438 7.98641Z" fill="#e9e7d2" fill-rule="nonzero" opacity="1" stroke="none" vectornator:layerName="Curve 8"/>
</g>
</svg>
