<?xml version="1.0" encoding="UTF-8" standalone="no"?>
<!-- Created with Inkscape (http://www.inkscape.org/) -->

<svg
   width="476"
   height="138"
   viewBox="0 0 476 138"
   version="1.1"
   id="svg1"
   xml:space="preserve"
   inkscape:export-filename="zephyr.svg"
   inkscape:export-xdpi="96"
   inkscape:export-ydpi="96"
   inkscape:version="1.3 (0e150ed, 2023-07-21)"
   sodipodi:docname="drawing.svg"
   xmlns:inkscape="http://www.inkscape.org/namespaces/inkscape"
   xmlns:sodipodi="http://sodipodi.sourceforge.net/DTD/sodipodi-0.dtd"
   xmlns:xlink="http://www.w3.org/1999/xlink"
   xmlns="http://www.w3.org/2000/svg"
   xmlns:svg="http://www.w3.org/2000/svg"><sodipodi:namedview
     id="namedview1"
     pagecolor="#ffffff"
     bordercolor="#000000"
     borderopacity="0.25"
     inkscape:showpageshadow="2"
     inkscape:pageopacity="0.0"
     inkscape:pagecheckerboard="0"
     inkscape:deskcolor="#d1d1d1"
     inkscape:document-units="px"
     inkscape:export-bgcolor="#efefef00"
     showgrid="true"
     showguides="true"
     inkscape:zoom="2.4802058"
     inkscape:cx="225.98931"
     inkscape:cy="60.680449"
     inkscape:window-width="1920"
     inkscape:window-height="1080"
     inkscape:window-x="0"
     inkscape:window-y="166"
     inkscape:window-maximized="0"
     inkscape:current-layer="Colored_Positive"><inkscape:grid
       id="grid8"
       units="px"
       originx="0"
       originy="0"
       spacingx="1"
       spacingy="1"
       empcolor="#0099e5"
       empopacity="0.30196078"
       color="#0099e5"
       opacity="0.14901961"
       empspacing="5"
       dotted="false"
       gridanglex="30"
       gridanglez="30"
       visible="true" /></sodipodi:namedview><defs
     id="defs1"><linearGradient
       id="linearGradient2"
       inkscape:collect="always"><stop
         style="stop-color:#000000;stop-opacity:1;"
         offset="0"
         id="stop7" /><stop
         style="stop-color:#000000;stop-opacity:0;"
         offset="1"
         id="stop8" /></linearGradient><rect
       x="277.65881"
       y="268.42719"
       width="186.76283"
       height="72.432732"
       id="rect1" /><style
       id="style1">.cls-1{fill:#7929d2;}.cls-2{fill:#9454db;}.cls-3{fill:#af7fe4;}.cls-4{fill:url(#linear-gradient);}.cls-5{fill:url(#linear-gradient-2);}.cls-6{fill:url(#linear-gradient-3);}.cls-7{fill:url(#linear-gradient-4);}.cls-8{fill:#2d3136;}</style><linearGradient
       id="linear-gradient"
       x1="174.37614"
       y1="84.251633"
       x2="268.2814"
       y2="84.251633"
       gradientUnits="userSpaceOnUse"><stop
         offset="0"
         stop-color="#7929d2"
         id="stop1" /><stop
         offset="1"
         stop-color="#0070c5"
         id="stop2" /></linearGradient><linearGradient
       id="linear-gradient-2"
       x1="180.76741"
       y1="1.52424"
       x2="179.9809"
       y2="94.350388"
       gradientUnits="userSpaceOnUse"><stop
         offset="0"
         stop-color="#00aeff"
         id="stop3" /><stop
         offset="1"
         stop-color="#9454db"
         id="stop4" /></linearGradient><linearGradient
       id="linear-gradient-3"
       x1="232.45567"
       y1="40.014938"
       x2="212.40736"
       y2="5.2902498"
       gradientUnits="userSpaceOnUse"><stop
         offset="0"
         stop-color="#66a9dc"
         id="stop5" /><stop
         offset="1"
         stop-color="#b1e4fa"
         id="stop6" /></linearGradient><linearGradient
       id="linear-gradient-4"
       x1="236.91521"
       y1="12.80673"
       x2="248.30597"
       y2="91.59285"
       xlink:href="#linear-gradient-2" /><style
       id="style1-8">.cls-1{fill:#7929d2;}.cls-2{fill:#9454db;}.cls-3{fill:#af7fe4;}.cls-4{fill:url(#linear-gradient);}.cls-5{fill:url(#linear-gradient-2);}.cls-6{fill:url(#linear-gradient-3);}.cls-7{fill:url(#linear-gradient-4);}.cls-8{fill:#2d3136;}</style><linearGradient
       id="linear-gradient-1"
       x1="174.37614"
       y1="84.251633"
       x2="268.2814"
       y2="84.251633"
       gradientUnits="userSpaceOnUse"><stop
         offset="0"
         stop-color="#7929d2"
         id="stop1-4" /><stop
         offset="1"
         stop-color="#0070c5"
         id="stop2-7" /></linearGradient><linearGradient
       id="linear-gradient-3-8"
       x1="232.45567"
       y1="40.014938"
       x2="212.40736"
       y2="5.2902498"
       gradientUnits="userSpaceOnUse"><stop
         offset="0"
         stop-color="#66a9dc"
         id="stop5-4" /><stop
         offset="1"
         stop-color="#b1e4fa"
         id="stop6-8" /></linearGradient><linearGradient
       id="linear-gradient-4-0"
       x1="236.91521"
       y1="12.80673"
       x2="248.30597"
       y2="91.59285"
       xlink:href="#linear-gradient-2" /><linearGradient
       inkscape:collect="always"
       xlink:href="#linear-gradient-2"
       id="linearGradient1"
       gradientUnits="userSpaceOnUse"
       x1="180.76741"
       y1="1.52424"
       x2="179.9809"
       y2="94.350388" /><rect
       x="277.65881"
       y="268.42719"
       width="186.76283"
       height="72.432732"
       id="rect1-7" /><linearGradient
       inkscape:collect="always"
       xlink:href="#linearGradient2"
       id="linearGradient8"
       x1="277.97852"
       y1="275.27466"
       x2="307.2793"
       y2="275.27466"
       gradientUnits="userSpaceOnUse" /><rect
       x="277.65881"
       y="268.42719"
       width="186.76283"
       height="72.432732"
       id="rect1-8" /></defs><g
     inkscape:label="Layer 1"
     inkscape:groupmode="layer"
     id="layer1"><g
       id="Colored_Positive"
       data-name="Colored Positive"
       transform="matrix(0.93599495,0,0,0.93599495,10.509236,166.26106)"><polygon
         class="cls-1"
         points="139.235,121.816 108.213,134.914 134.589,148.235 "
         id="polygon6"
         transform="matrix(0.63795344,0,0,0.63795344,1.4833495,-157.4294)" /><polygon
         class="cls-2"
         points="72.257,139.174 39.167,126.786 46.839,152.801 "
         id="polygon7"
         transform="matrix(0.63795344,0,0,0.63795344,1.4833495,-157.4294)" /><polygon
         class="cls-3"
         points="87.948,115.889 108.213,134.914 72.257,139.174 "
         id="polygon8"
         transform="matrix(0.63795344,0,0,0.63795344,1.4833495,-157.4294)" /><polygon
         class="cls-3"
         points="43.162,98.013 39.167,126.786 14.155,101.821 "
         id="polygon9"
         transform="matrix(0.63795344,0,0,0.63795344,1.4833495,-157.4294)" /><polygon
         class="cls-4"
         points="139.235,121.815 220.898,46.688 257.609,95.332 "
         id="polygon10"
         style="fill:url(#linear-gradient-1)"
         transform="matrix(0.63795344,0,0,0.63795344,1.4833495,-157.4294)" /><polygon
         class="cls-5"
         points="139.235,121.815 174.116,11.275 220.898,46.688 "
         id="polygon11"
         style="fill:url(#linearGradient1)"
         transform="matrix(0.63795344,0,0,0.63795344,1.4833495,-157.4294)" /><polygon
         class="cls-6"
         points="174.116,11.275 257.609,11.275 220.898,46.688 "
         id="polygon12"
         style="fill:url(#linear-gradient-3-8)"
         transform="matrix(0.63795344,0,0,0.63795344,1.4833495,-157.4294)" /><polygon
         class="cls-7"
         points="257.609,95.332 257.609,11.275 220.898,46.688 "
         id="polygon13"
         style="fill:url(#linear-gradient-4-0)"
         transform="matrix(0.63795344,0,0,0.63795344,1.4833495,-157.4294)" /><path
         class="cls-8"
         d="m 185.4803,-62.144292 v -6.05163 l 16.14622,-22.57928 h -15.38341 v -6.56019 h 23.95232 v 5.77195 l -16.29878,22.85898 h 16.73107 v 6.56019 z"
         id="path13"
         style="stroke-width:0.685194;stroke:none;stroke-opacity:1;fill:#d9dbe0;fill-opacity:1" /><path
         class="cls-8"
         d="m 220.61522,-73.764482 q 0.17765,3.56013 1.72904,5.11086 1.55073,1.55123 4.88201,1.55106 a 10.824692,10.824692 0 0 0 3.39452,-0.48312 5.4380957,5.4380957 0 0 0 2.55542,-1.85619 l 4.88201,3.48353 a 9.8769459,9.8769459 0 0 1 -4.15733,3.45809 q -2.55542,1.1442 -6.97972,1.1442 -6.58629,0 -9.82758,-3.45808 -3.24196,-3.45776 -3.24196,-10.45058 0,-14.31529 12.81527,-14.31546 5.69501,0 8.68336,3.21653 2.98702,3.21686 2.98769,9.36989 v 3.22925 z m 11.21336,-4.52602 q 0,-6.07692 -5.31427,-6.07708 a 6.0756549,6.0756549 0 0 0 -2.87326,0.59753 4.4671692,4.4671692 0 0 0 -1.79261,1.7799 11.226264,11.226264 0 0 0 -1.0552,3.69965 z"
         id="path14"
         style="stroke-width:0.685194;stroke:none;stroke-opacity:1;fill:#d9dbe0;fill-opacity:1" /><path
         class="cls-8"
         d="m 267.85412,-75.671522 a 20.510229,20.510229 0 0 1 -1.29679,7.57729 10.873581,10.873581 0 0 1 -3.71238,5.00914 9.6554364,9.6554364 0 0 1 -5.77195,1.72904 10.991119,10.991119 0 0 1 -7.55185,-2.77155 v 12.02703 h -6.5602 v -36.71675 h 6.05163 v 2.61899 a 15.747652,15.747652 0 0 1 3.85221,-2.47914 11.278798,11.278798 0 0 1 4.64045,-0.90266 q 5.05966,0 7.70441,3.5598 2.6438,3.56011 2.64447,10.34881 z m -6.76362,0.10171 q 0,-3.89035 -1.34764,-6.06436 a 4.4227001,4.4227001 0 0 0 -4.01748,-2.17402 8.0938249,8.0938249 0 0 0 -3.29281,0.7501 11.023303,11.023303 0 0 0 -2.91139,1.84347 v 11.67104 a 10.4882,10.4882 0 0 0 2.58085,1.66548 7.3478269,7.3478269 0 0 0 3.16567,0.72467 4.892469,4.892469 0 0 0 4.25905,-2.30115 10.703447,10.703447 0 0 0 1.56375,-6.1152 z"
         id="path15"
         style="stroke-width:0.685194;stroke:none;stroke-opacity:1;fill:#d9dbe0;fill-opacity:1" /><path
         class="cls-8"
         d="m 289.79236,-62.144292 v -14.69687 q 0,-4.22056 -0.78824,-5.59397 a 2.9494169,2.9494169 0 0 0 -2.79696,-1.37306 q -2.92479,0 -7.04331,3.86492 v 17.79898 h -6.56019 v -37.860968 h 6.56019 v 14.646018 a 15.106112,15.106112 0 0 1 4.44975,-3.15297 11.194457,11.194457 0 0 1 4.62773,-1.06793 q 4.47451,0 6.29321,2.51728 1.81771,2.51728 1.81804,7.11959 v 17.79898 z"
         id="path16"
         style="stroke-width:0.685194;stroke:none;stroke-opacity:1;fill:#d9dbe0;fill-opacity:1" /><path
         class="cls-8"
         d="m 299.44998,-58.559072 a 11.913116,11.913116 0 0 0 3.8395,0.73739 4.0478237,4.0478237 0 0 0 2.59356,-0.88994 q 1.11813,-0.89028 2.3139,-3.68694 l 0.68657,-1.57648 -9.63694,-24.84228 h 6.81449 l 6.30592,17.03617 6.45849,-17.03617 h 6.66191 l -11.46763,28.5038 a 21.24512,21.24512 0 0 1 -2.7207,5.08543 7.7854808,7.7854808 0 0 1 -3.0894,2.39015 11.584709,11.584709 0 0 1 -4.43703,0.73738 21.834558,21.834558 0 0 1 -5.7211,-0.76281 z"
         id="path17"
         style="stroke-width:0.685194;stroke:none;stroke-opacity:1;fill:#d9dbe0;fill-opacity:1" /><path
         class="cls-8"
         d="m 344.62862,-82.409702 a 6.0649179,6.0649179 0 0 0 -2.69528,-0.50854 7.2540718,7.2540718 0 0 0 -3.4708,0.87724 15.296514,15.296514 0 0 0 -3.3691,2.55542 v 17.34129 h -6.5602 v -26.67303 h 6.5602 v 3.81407 a 17.12505,17.12505 0 0 1 3.61065,-3.02582 8.0519253,8.0519253 0 0 1 4.32261,-1.19507 5.805805,5.805805 0 0 1 2.89869,0.53396 z"
         id="path18"
         style="stroke-width:0.685194;stroke:none;stroke-opacity:1;fill:#d9dbe0;fill-opacity:1" /><path
         class="cls-8"
         d="m 353.74949,-90.478842 h -0.61945 v 1.42303 h -0.84553 v -3.97121 h 1.85788 a 1.2367064,1.2367064 0 0 1 1.33368,1.28014 1.1395938,1.1395938 0 0 1 -0.86969,1.1787 l 0.89339,1.51237 h -0.97064 z m 0.26778,-1.82185 h -0.88723 v 1.09553 h 0.88723 a 0.5496625,0.5496625 0 1 0 0,-1.09553 z"
         id="path19"
         style="stroke-width:0.685194;stroke:none;stroke-opacity:1;fill:#d9dbe0;fill-opacity:1" /><path
         class="cls-8"
         d="m 353.89188,-86.728972 a 4.3124456,4.3124456 0 1 1 4.31285,-4.31257 4.3172831,4.3172831 0 0 1 -4.31285,4.31257 z m 0,-8.07932 a 3.7668806,3.7668806 0 1 0 3.76728,3.76675 3.7711288,3.7711288 0 0 0 -3.76728,-3.76675 z"
         id="path20"
         style="stroke-width:0.685194;stroke:none;stroke-opacity:1;fill:#d9dbe0;fill-opacity:1" /><path
         d="m 278.47852,279.5022 h 1.05468 v -3.3457 h 1.95703 q 0.0176,0 0.0293,0 0.0176,0 0.0352,0 l 1.81054,3.3457 h 1.23633 l -1.95703,-3.50976 q 0.79102,-0.25196 1.24219,-0.89063 0.45703,-0.64453 0.45703,-1.52344 v -0.0117 q 0,-0.76172 -0.33398,-1.32422 -0.33399,-0.56836 -0.94336,-0.87891 -0.60352,-0.31641 -1.41797,-0.31641 h -3.16992 z m 1.05468,-4.27734 v -3.24024 h 1.97461 q 0.81446,0 1.27735,0.42774 0.46875,0.42187 0.46875,1.17773 v 0.0117 q 0,0.7793 -0.44532,1.20117 -0.43945,0.42188 -1.2539,0.42188 z m 8.27344,4.27734 h 1.05469 v -7.50586 h 2.66601 v -0.94922 h -6.38672 v 0.94922 h 2.66602 z m 7.88086,0.14063 q 1.20117,0 2.06836,-0.53321 0.87305,-0.5332 1.34766,-1.51171 0.4746,-0.97852 0.4746,-2.32032 v -0.0117 q 0,-1.34179 -0.4746,-2.31445 -0.47461,-0.97851 -1.34766,-1.51172 -0.87305,-0.5332 -2.06836,-0.5332 -1.19531,0 -2.07422,0.5332 -0.87305,0.53321 -1.35351,1.51172 -0.47461,0.97266 -0.47461,2.31445 v 0.0117 q 0,1.3418 0.47461,2.32032 0.4746,0.97851 1.34765,1.51171 0.87891,0.53321 2.08008,0.53321 z m 0,-0.97266 q -0.86719,0 -1.5,-0.41601 -0.63281,-0.41602 -0.97852,-1.17774 -0.3457,-0.76172 -0.3457,-1.79883 v -0.0117 q 0,-1.04296 0.3457,-1.79882 0.34571,-0.76172 0.97852,-1.17188 0.63867,-0.41601 1.5,-0.41601 0.86133,0 1.49414,0.41601 0.63281,0.41016 0.97266,1.17188 0.3457,0.76171 0.3457,1.79882 v 0.0117 q 0,1.03125 -0.33984,1.79297 -0.33985,0.76172 -0.97266,1.1836 -0.62695,0.41601 -1.5,0.41601 z m 7.96875,0.97266 q 0.9668,0 1.66406,-0.29883 0.70313,-0.29883 1.07813,-0.84961 0.38086,-0.55078 0.38086,-1.30078 v -0.006 q 0,-0.64453 -0.25782,-1.10156 -0.25195,-0.46289 -0.79687,-0.77344 -0.53906,-0.31055 -1.40625,-0.49805 l -0.9375,-0.20508 q -0.82617,-0.18164 -1.21875,-0.51562 -0.39258,-0.33399 -0.39258,-0.84961 v -0.006 q 0,-0.41016 0.22852,-0.71484 0.23437,-0.30469 0.65625,-0.47461 0.42187,-0.16992 0.98437,-0.16992 0.53906,0 0.94336,0.16406 0.41016,0.16406 0.66211,0.46875 0.25195,0.30469 0.31641,0.73828 l 0.0117,0.082 h 1.05468 l -0.006,-0.0879 q -0.0469,-0.69141 -0.43945,-1.21875 -0.38672,-0.52734 -1.03711,-0.82031 -0.65039,-0.29883 -1.47656,-0.29883 -0.86719,0 -1.54102,0.30469 -0.66797,0.29882 -1.04883,0.83203 -0.38085,0.52734 -0.38671,1.22461 v 0.006 q 0,0.92578 0.59179,1.5 0.59766,0.56836 1.83399,0.84375 l 0.9375,0.20507 q 0.87304,0.19336 1.25976,0.52735 0.38672,0.33398 0.38672,0.89062 v 0.006 q 0,0.4336 -0.24609,0.75586 -0.24024,0.32227 -0.68555,0.49805 -0.44531,0.16992 -1.05469,0.16992 -0.60937,0 -1.07812,-0.16406 -0.46289,-0.16992 -0.74414,-0.47461 -0.28125,-0.31055 -0.34571,-0.73242 l -0.0117,-0.082 h -1.05469 l 0.006,0.082 q 0.0527,0.7207 0.45703,1.24804 0.41016,0.52735 1.10156,0.81446 0.69727,0.28125 1.61133,0.28125 z"
         id="text1"
         style="font-size:12px;font-family:'SF Pro';-inkscape-font-specification:'SF Pro, Normal';white-space:pre;fill:#dddddd;stroke:#cfcfcf;stroke-width:0.0853446"
         transform="matrix(3.5313171,0,0,3.5313171,-613.94172,-1047.7665)"
         aria-label="RTOS" /><path
         d="m 278.47852,279.5022 h 1.05468 v -3.3457 h 1.95703 q 0.0176,0 0.0293,0 0.0176,0 0.0352,0 l 1.81054,3.3457 h 1.23633 l -1.95703,-3.50976 q 0.79102,-0.25196 1.24219,-0.89063 0.45703,-0.64453 0.45703,-1.52344 v -0.0117 q 0,-0.76172 -0.33398,-1.32422 -0.33399,-0.56836 -0.94336,-0.87891 -0.60352,-0.31641 -1.41797,-0.31641 h -3.16992 z m 1.05468,-4.27734 v -3.24024 h 1.97461 q 0.81446,0 1.27735,0.42774 0.46875,0.42187 0.46875,1.17773 v 0.0117 q 0,0.7793 -0.44532,1.20117 -0.43945,0.42188 -1.2539,0.42188 z m 8.05664,4.39453 q 0.46289,0 0.82618,-0.12891 0.36328,-0.1289 0.62109,-0.35156 0.26367,-0.22266 0.42773,-0.50391 h 0.0234 v 0.86719 h 1.01953 v -6.09375 h -1.01953 v 3.58594 q 0,0.38672 -0.11133,0.70898 -0.11133,0.31641 -0.32226,0.54493 -0.21094,0.22265 -0.50391,0.3457 -0.28711,0.12305 -0.65039,0.12305 -0.70312,0 -1.05469,-0.39258 -0.3457,-0.39844 -0.3457,-1.14258 v -3.77344 h -1.01953 v 3.95508 q 0,0.69141 0.24609,1.20117 0.25196,0.50391 0.72071,0.7793 0.4746,0.27539 1.14257,0.27539 z m 4.24219,-0.11719 h 1.01953 v -3.58594 q 0,-0.52148 0.19336,-0.9082 0.19922,-0.38672 0.55664,-0.59765 0.35742,-0.2168 0.83789,-0.2168 0.70313,0 1.04883,0.39844 0.35156,0.39257 0.35156,1.13671 v 3.77344 h 1.01953 v -3.95508 q 0,-1.04296 -0.55664,-1.64648 -0.55078,-0.60938 -1.55273,-0.60938 -0.69141,0 -1.16016,0.28125 -0.46875,0.2754 -0.71484,0.70313 h -0.0234 v -0.86719 h -1.01953 z m 8.48438,0.11719 q 0.67968,0 1.21289,-0.22852 0.53906,-0.23437 0.84375,-0.64453 0.31054,-0.41015 0.31054,-0.94336 v -0.006 q 0,-0.65039 -0.375,-1.03711 -0.375,-0.39257 -1.30078,-0.61523 l -0.96679,-0.23437 q -0.33399,-0.082 -0.54493,-0.20508 -0.21093,-0.12305 -0.31054,-0.28711 -0.0937,-0.16992 -0.0937,-0.375 v -0.006 q 0,-0.26953 0.14062,-0.46875 0.14649,-0.20508 0.41602,-0.31641 0.26953,-0.11133 0.63867,-0.11133 0.56836,0 0.89648,0.26954 0.33399,0.26953 0.39258,0.71484 l 0.006,0.041 h 0.97266 l -0.006,-0.0762 q -0.0352,-0.50976 -0.32227,-0.91406 -0.28125,-0.41016 -0.77929,-0.64453 -0.49219,-0.24024 -1.16016,-0.24024 -0.65625,0 -1.16602,0.22852 -0.5039,0.22852 -0.79101,0.63281 -0.28125,0.4043 -0.28125,0.93164 v 0.006 q 0,0.43946 0.1875,0.76758 0.1875,0.32813 0.5625,0.55664 0.38086,0.22266 0.95508,0.36328 l 0.96679,0.23438 q 0.52149,0.1289 0.72071,0.32812 0.19921,0.19922 0.19921,0.52735 v 0.006 q 0,0.27539 -0.1582,0.48046 -0.1582,0.19922 -0.45117,0.31055 -0.29297,0.10547 -0.70898,0.10547 -0.6211,0 -0.9668,-0.25195 -0.3457,-0.25782 -0.43945,-0.71485 l -0.0117,-0.0586 h -1.01953 l 0.006,0.0527 q 0.0645,0.54493 0.36329,0.95508 0.30468,0.41016 0.82617,0.63867 0.52148,0.22852 1.23633,0.22852 z m 6.04101,-0.11719 h 1.05469 v -3.66211 h 3.74414 v -0.9375 h -3.74414 v -2.90625 h 4.07812 v -0.94922 h -5.13281 z m 8.25586,0.11719 q 0.46289,0 0.82617,-0.12891 0.36328,-0.1289 0.6211,-0.35156 0.26367,-0.22266 0.42773,-0.50391 h 0.0234 v 0.86719 h 1.01953 v -6.09375 h -1.01953 v 3.58594 q 0,0.38672 -0.11133,0.70898 -0.11133,0.31641 -0.32227,0.54493 -0.21093,0.22265 -0.5039,0.3457 -0.28711,0.12305 -0.65039,0.12305 -0.70313,0 -1.05469,-0.39258 -0.3457,-0.39844 -0.3457,-1.14258 v -3.77344 h -1.01953 v 3.95508 q 0,0.69141 0.24609,1.20117 0.25195,0.50391 0.7207,0.7793 0.47461,0.27539 1.14258,0.27539 z m 4.29492,-0.11719 h 1.01953 v -8.45508 h -1.01953 z m 2.44922,0 h 1.01953 v -8.45508 h -1.01953 z"
         id="text1-4"
         style="font-size:12px;font-family:'SF Pro';-inkscape-font-specification:'SF Pro, Normal';white-space:pre;fill:#cecece;stroke:#550000;stroke-width:0"
         transform="matrix(4.1451022,0,0,4.1451022,-914.97027,-1270.1282)"
         aria-label="Runs Full" /><path
         d="m 52.081192,-173.77529 v 0.13981 H 14.827635 c -2.003186,0 -3.839522,0.0835 -5.5192765,0.26083 -1.679755,0.17737 -3.203079,0.44864 -4.58027,0.82424 -1.37719,0.3756 -2.60837,0.85555 -3.703863,1.45025 -1.09549204,0.59469 -2.055395,1.30419 -2.890056,2.13885 -0.834661,0.83466 -1.544155,1.79456 -2.138851,2.89005 -0.594696,1.0955 -1.074647,2.32668 -1.450245,3.70387 -0.375597,1.37719 -0.646874,2.90051 -0.82424,4.58027 -0.177365,1.67975 -0.260835,3.51609 -0.260835,5.51927 v 39.54891 8.24866 10.963438 37.11375 c 0,2.00319 0.08347,3.83951 0.260835,5.51927 0.177366,1.67976 0.448642,3.20308 0.82424,4.58027 0.375599,1.3772 0.855548,2.60837 1.450245,3.70387 0.594697,1.09549 1.304188,2.05539 2.138851,2.89005 0.834662,0.83466 1.79456096,1.54415 2.890056,2.13885 1.095495,0.5947 2.32667,1.07465 3.703863,1.45025 1.377193,0.37559 2.900511,0.64687 4.58027,0.82424 1.6797575,0.17736 3.5160865,0.26083 5.5192765,0.26083 h 39.548908 l 368.591727,-0.002 5.34191,0.002 h 42.73527 c 2.00321,0 3.83951,-0.0835 5.51928,-0.26084 1.67977,-0.17736 3.20307,-0.44863 4.58027,-0.82424 1.37721,-0.3756 2.60836,-0.85554 3.70386,-1.45024 1.09551,-0.5947 2.05539,-1.30418 2.89006,-2.13885 0.83467,-0.83467 1.54415,-1.79455 2.13885,-2.89006 0.5947,-1.0955 1.07464,-2.32666 1.45025,-3.70386 0.3756,-1.3772 0.64687,-2.9005 0.82424,-4.58027 0.17736,-1.67977 0.26083,-3.51607 0.26083,-5.51928 v -39.54881 -8.528278 -10.68382 -37.39336 c 0,-2.0032 -0.0835,-3.83952 -0.26083,-5.51928 -0.17737,-1.67976 -0.44865,-3.20308 -0.82424,-4.58027 -0.3756,-1.3772 -0.85555,-2.60837 -1.45025,-3.70386 -0.5947,-1.0955 -1.30419,-2.0554 -2.13885,-2.89006 -0.83466,-0.83466 -1.79456,-1.54415 -2.89006,-2.13885 -1.09549,-0.5947 -2.32666,-1.07465 -3.70386,-1.45025 -1.37719,-0.37559 -2.90051,-0.64687 -4.58027,-0.82424 -1.67976,-0.17736 -3.51608,-0.26083 -5.51928,-0.26083 h -39.5489 z"
         style="font-variation-settings:'wght' 352;fill:none;stroke:#ffffff;stroke-width:3.37609;stroke-dasharray:none;stroke-opacity:1"
         id="path9"
         sodipodi:nodetypes="ccssssssssscccssssssssscccssssssssscccssssssssscc" /></g></g></svg>
